<svg version="1.1" id="Layer_1" xmlns="http://www.w3.org/2000/svg" x="0" y="0" viewBox="0 0 1000 862.2" style="enable-background:new 0 0 1000 862.2" xml:space="preserve"><style>.st3{opacity:.1;fill:#231f20}.st5{fill:#fff}.st6{fill:#231f20}.st9{fill:#f1f2f2}.st11{fill:#9d3be2}.st12{fill:#ff4d53}.st13{fill:#feac02}.st14{fill:#f9d79b}.st16{fill:#e6e7e8}.st17{opacity:.39;fill:#fff}.st19{fill:#e29776}.st20{fill:#4570ad}.st22{fill:#ffbe9d}</style><path d="M445.7 824.9S115.5 813.6 87.3 388.6s424.5-399.8 505.8-336c67.8 53.3 223.5 96.9 283.8 298.9 28.3 94.9 15.3 197.6-36.5 282.1-61 99.7-178.5 211.6-394.7 191.3z" style="fill:#cfb5f6"/><path d="M508.3 786.9S227 777.3 203 415.3 564.6 74.7 633.8 129.1c57.8 45.4 190.3 82.5 241.7 254.6 24.1 80.8 13 168.3-31.1 240.3-51.9 84.8-151.9 180.2-336.1 162.9z" style="fill:#e2d5f8"/><path d="M450.6 786.9s-281.3-9.6-305.3-371.6S506.9 74.7 576.1 129.1c57.8 45.4 190.3 82.5 241.7 254.6 24.1 80.8 13 168.3-31.1 240.3-51.9 84.8-151.9 180.2-336.1 162.9z" style="opacity:.47;fill:#e2d5f8"/><ellipse class="st3" cx="282.9" cy="813.2" rx="149.6" ry="26.6"/><ellipse class="st3" cx="613.3" cy="807.2" rx="131.7" ry="26.6"/><ellipse class="st3" cx="766.7" cy="756.5" rx="86.3" ry="8.2"/><ellipse class="st3" cx="229.9" cy="754.4" rx="87" ry="10.6"/><path d="M791.6 78.3h70.3s19.1 6.2 19.1 38.2v570.1s-76.3 2.2-79.7 4.5-9.7-612.8-9.7-612.8z" style="fill:#58595b"/><path class="st5" d="M844.5 718.7H430.3c-10.6 0-19.3-8.6-19.3-19.3V97.5c0-10.6 8.6-19.3 19.3-19.3h414.2c10.6 0 19.3 8.6 19.3 19.3v601.9c0 10.6-8.7 19.3-19.3 19.3z"/><path class="st6" d="M812.1 161.9H633.6c-8.3 0-15 6.8-15 15.2v83.8c0 8.4 6.7 15.2 15 15.2h178.5c8.3 0 15-6.8 15-15.2v-83.8c0-8.4-6.7-15.2-15-15.2z"/><path class="st5" d="M811 162.6H634.7c-8.2 0-14.8 6.7-14.8 15v82.7c0 8.3 6.6 15 14.8 15H811c8.2 0 14.8-6.7 14.8-15v-82.7c0-8.3-6.6-15-14.8-15z"/><path class="st6" d="M735.6 130.5H542.8c-4.6 0-8.3-3.7-8.3-8.3V74.8c0-4.6 3.7-8.3 8.3-8.3h192.8c4.6 0 8.3 3.7 8.3 8.3v47.4c0 4.6-3.7 8.3-8.3 8.3z"/><path d="M734.2 128.8H544.3c-4.6 0-8.3-3.7-8.3-8.3v-44c0-4.6 3.7-8.3 8.3-8.3h189.9c4.6 0 8.3 3.7 8.3 8.3v44c0 4.6-3.7 8.3-8.3 8.3z" style="fill:#ff4e4d"/><path class="st6" d="M665.4 24.5c-6.6-6.4-15.8-10.4-25.9-10.4-20.3 0-36.7 15.9-36.7 35.5v67.6h73.3V49.6c0-9.8-4.1-18.6-10.7-25.1zm-26.7 42.4c-8.4 0-15.2-6.6-15.2-14.8s6.8-14.7 15.2-14.7c8.4 0 15.2 6.6 15.2 14.7s-6.8 14.8-15.2 14.8z"/><path d="M664.1 25.6c-6.3-6.3-15-10.2-24.6-10.2-19.2 0-34.8 15.6-34.8 34.8v66.3h69.7V50.2c-.1-9.6-4-18.3-10.3-24.6zm-25.4 41.5c-8 0-14.5-6.5-14.5-14.5s6.5-14.5 14.5-14.5 14.5 6.5 14.5 14.5-6.5 14.5-14.5 14.5z" style="fill:#ff495a"/><path class="st6" d="M821.2 356.7h-34.3c-4.9 0-8.9-4-8.9-8.9v-30.1c0-4.9 4-8.9 8.9-8.9h34.3c4.9 0 8.9 4 8.9 8.9v30.1c0 4.9-4 8.9-8.9 8.9zM819.9 424.8h-34.3c-4.9 0-8.9-4-8.9-8.9v-30.1c0-4.9 4-8.9 8.9-8.9h34.3c4.9 0 8.9 4 8.9 8.9v30.1c0 4.9-4 8.9-8.9 8.9zM821.2 492.9h-34.3c-4.9 0-8.9-4-8.9-8.9v-30.1c0-4.9 4-8.9 8.9-8.9h34.3c4.9 0 8.9 4 8.9 8.9V484c0 4.9-4 8.9-8.9 8.9z"/><path class="st9" d="M818.1 353.2h-31.3c-4.9 0-8.9-4-8.9-8.9V313c0-4.9 4-8.9 8.9-8.9h31.3c4.9 0 8.9 4 8.9 8.9v31.3c.1 4.9-3.9 8.9-8.9 8.9zM816.9 423.1h-31.3c-4.9 0-8.9-4-8.9-8.9v-31.3c0-4.9 4-8.9 8.9-8.9h31.3c4.9 0 8.9 4 8.9 8.9v31.3c0 4.9-4 8.9-8.9 8.9zM818.1 492.9h-31.3c-4.9 0-8.9-4-8.9-8.9v-31.3c0-4.9 4-8.9 8.9-8.9h31.3c4.9 0 8.9 4 8.9 8.9V484c.1 4.9-3.9 8.9-8.9 8.9z"/><g style="opacity:.44"><path class="st11" d="M591.5 176.8h-94.9c-3.4 0-6.1-2.7-6.1-6.1V168c0-3.4 2.7-6.1 6.1-6.1h94.9c3.4 0 6.1 2.7 6.1 6.1v2.7c0 3.4-2.8 6.1-6.1 6.1zM588.2 206.6h-94.9c-3.4 0-6.1-2.7-6.1-6.1v-2.7c0-3.4 2.7-6.1 6.1-6.1h94.9c3.4 0 6.1 2.7 6.1 6.1v2.7c0 3.3-2.7 6.1-6.1 6.1zM547.7 237.5h-54.3c-3.4 0-6.1-2.7-6.1-6.1v-2.7c0-3.4 2.7-6.1 6.1-6.1h54.3c3.4 0 6.1 2.7 6.1 6.1v2.7c-.1 3.4-2.8 6.1-6.1 6.1zM744.4 317.9H492.9c-3.1 0-5.7-2.5-5.7-5.7v-2.5c0-3.1 2.5-5.7 5.7-5.7h251.5c3.1 0 5.7 2.5 5.7 5.7v2.5c0 3.2-2.6 5.7-5.7 5.7zM744.4 388.6H492.9c-3.1 0-5.7-2.5-5.7-5.7v-2.5c0-3.1 2.5-5.7 5.7-5.7h251.5c3.1 0 5.7 2.5 5.7 5.7v2.5c0 3.2-2.6 5.7-5.7 5.7zM744.4 353.2h-51.9c-3.1 0-5.6-2.5-5.6-5.6v-2.5c0-3.1 2.5-5.6 5.6-5.6h51.9c3.1 0 5.6 2.5 5.6 5.6v2.5c.1 3.1-2.5 5.6-5.6 5.6zM747.4 459.3h-51.9c-3.1 0-5.6-2.5-5.6-5.6v-2.5c0-3.1 2.5-5.6 5.6-5.6h51.9c3.1 0 5.6 2.5 5.6 5.6v2.5c.1 3.1-2.5 5.6-5.6 5.6zM744.5 423.1h-26.7c-3.1 0-5.6-2.5-5.6-5.6V415c0-3.1 2.5-5.6 5.6-5.6h26.7c3.1 0 5.6 2.5 5.6 5.6v2.5c0 3.1-2.5 5.6-5.6 5.6z"/></g><path class="st12" d="M798.1 341.9h-.3c-.9-.1-1.7-.7-2-1.5l-6.7-16.2c-.5-1.2.1-2.7 1.3-3.2s2.7.1 3.2 1.3l5 12.1 12.6-17.9c.8-1.1 2.3-1.4 3.4-.6 1.1.8 1.4 2.3.6 3.4L800 340.8c-.4.7-1.1 1.1-1.9 1.1zM798.1 411.7h-.3c-.9-.1-1.7-.7-2-1.5l-6.7-16.2c-.5-1.2.1-2.7 1.3-3.2s2.7.1 3.2 1.3l5 12.1 12.6-17.9c.8-1.1 2.3-1.4 3.4-.6 1.1.8 1.4 2.3.6 3.4L800 410.6c-.4.7-1.1 1.1-1.9 1.1zM797 481.5h-.3c-.9-.1-1.7-.7-2-1.5l-6.7-16.2c-.5-1.2.1-2.7 1.3-3.2s2.7.1 3.2 1.3l5 12.1 12.6-17.9c.8-1.1 2.3-1.4 3.4-.6 1.1.8 1.4 2.3.6 3.4L799 480.4c-.4.7-1.2 1.1-2 1.1z"/><path class="st6" d="M762.9 242.5H678l-31.3-1.8-14.8-3.2V226l2.5-3.3-.2-10.5-.1-3.2 3.3-2.3 24.2-16.5s6.2-4.9 14.3-4.9h45.5s11.5-1.9 32.5 10.9c8.3 5 12.2 7.4 13.9 8.4.4.2.7.4.8.5h.1c.1 0 .1.1.1.1h.1-.1s-.1 0-.1-.1h-.1c-.4-.2-.9-.6-.9-.6h.1c.8.1 7.3 1.2 13.1 2.4 6.2 1.4 25 2.9 32 16.3v12.5s1.4 8.2-6.9 8.1c-5.3-.1-13.2 0-13.2 0l-29.9-1.3z"/><path class="st13" d="M762.3 242.1h-83.6l-30.8-1.7-14.6-3.1v-11.1l2.5-3.2-.2-10-.1-3.1 3.3-2.2 23.8-15.7s6.1-4.7 14.1-4.7h44.8s11.3-1.8 32 10.4c8.1 4.8 12 7.1 13.6 8 .4.2.7.4.8.5h.1c.1 0 .1.1.1.1h.1-.1s-.1 0-.1-.1h-.1c-.4-.2-.9-.5-.9-.5h.1c.8.1 7.2 1.1 12.9 2.3 6.1 1.3 24.6 2.8 31.5 15.6v11.9s1.4 7.8-6.8 7.7c-5.3-.1-13 0-13 0l-29.4-1.1z"/><path class="st6" d="M705.1 191.7v14.9h-39.3s6.7-13.8 18.3-14.9c11.5-1.1 21 0 21 0zM709.6 191.7l2.8 13.5s.6 2.8 6 3.1c5.5.3 35 0 35 0S740.5 194 725 192.9l-15.4-1.2zM634.1 212.2h10.6s-3.7 11.4-10.4 10.5M661.9 198.9c-4.5 4.3-7.9 6.8-12.6 7.7-3.4.6-9 .4-11.8.1l24.2-16.5c1.4 2.7 2.7 6.3.2 8.7zM787.7 217.4s1.1 5.7 5.2 6.8c4.1 1.1 13.1 0 13.1 0s-2.5-6.1-9.1-6.8c-6.7-.7-9.2 0-9.2 0zM802.5 238.6h7.1v-4.5s-6.4-3.4-7.1 4.5z"/><circle class="st6" cx="663" cy="237.5" r="15"/><circle class="st14" cx="661.7" cy="237.5" r="11.6"/><circle class="st6" cx="776.7" cy="237.5" r="15"/><circle class="st14" cx="776.6" cy="238.6" r="11.6"/><g><path d="M419.4 222.4s-1.3 13.8 8 20.5c9.3 6.6 9.5 15.7 9.5 15.7s-7.7 5.5-8.7 8.1c-1 2.6.6 9.7 2 11.5s7.1-1 9.1 3.3 4.4 8.6 2.3 9.8c-2.1 1.2-7.9 2.4-6.7 7.4 1.2 5 .9 8.7 5.4 9.8s9.9 1.3 10.5 7.4c.6 6.1-.5 10.7-2.4 11.8-2 1.1-4.2 4-4.3 8.4-.2 4.2 3.9 9.9 3.9 9.9l17.4 5.4 15.1-14-29.9-123-31.2 8z" style="fill:none;stroke:#231f20;stroke-width:2;stroke-miterlimit:10"/><path class="st6" d="m466.2 331.3-2.3.5c-1.6.4-3.1-.6-3.5-2.2L438 230.8c-.4-1.6.6-3.1 2.2-3.5l2.3-.5c1.6-.4 3.1.6 3.5 2.2l22.4 98.8c.4 1.6-.6 3.2-2.2 3.5zM444.5 135.7c-.9-.2-1.8-.2-2.8-.1-5 .9-24.5 4.2-40.7 7.9-12.7 2.8-18.8 13.4-21.4 20-1.2 3.1-1.5 6.5-.8 9.8l9.5 45.2c2.2 10.5 15.9 9.2 15.9 9.2s43.8-12 60-15.4c16.2-3.3 11.9-15.1 11.9-15.1s-1.4-9.2-7.9-34.4c-5.4-20.6-18.9-25.9-23.7-27.1zm-6.4 20.2 1.7 6.3c.6 2-.6 4.1-2.7 4.7L411 174c-2 .6-4.1-.6-4.7-2.7l-1.7-6.3c-.6-2 .6-4.1 2.7-4.7l26.1-7.1c2.1-.5 4.2.7 4.7 2.7z"/><g><path class="st16" d="M456.6 92.6c-13.5-17.7-39-21.1-56.7-7.6-17.7 13.5-21.1 39-7.6 56.7 1.2 1.6 2.6 3.1 4.1 4.5 0 0 .1 0 .1-.1l2-1s.1 0 .1-.1c-1.6-1.5-3.1-3.1-4.4-4.8-12.7-16.7-9.5-40.6 7.2-53.3 16.7-12.7 40.6-9.5 53.3 7.2 8.8 11.5 10.3 26.7 4 39.7-2.6 5.4-6.4 10-11.1 13.6-1.3 1-2.6 1.9-3.9 2.6-3.7 2.2-7.8 3.7-12.1 4.5-.6.1-1.1.7-.9 1.4.1.6.7 1.1 1.4.9 4.5-.9 8.9-2.5 12.8-4.8 1.4-.8 2.8-1.8 4.2-2.8 5.1-3.9 9.1-8.7 11.8-14.5 6.6-13.7 5-29.9-4.3-42.1zm7.1-5.4C447.5 66 417.2 62 396 78.1c-21.2 16.1-25.2 46.5-9.1 67.7 1.2 1.5 2.4 3 3.7 4.3l1.9-1.4c-1.3-1.3-2.6-2.8-3.7-4.3-15.3-20.1-11.5-49 8.6-64.3 20.1-15.4 49-11.5 64.3 8.6 10.9 14.3 12.5 33.8 3.9 49.7-3.1 5.7-7.3 10.7-12.5 14.6-1.6 1.2-3.3 2.4-5 3.3-9.7 5.5-21 7.4-32 5.1-.6-.1-1.3.3-1.4.9-.1.6.3 1.3.9 1.4 11.5 2.3 23.5.4 33.6-5.4 1.8-1 3.6-2.2 5.3-3.5 5.5-4.2 9.9-9.4 13.2-15.4 9.1-16.7 7.5-37.2-4-52.2z"/></g></g><g><path class="st13" d="M898 669.3c-2.1 9.7-5.9 17.8-12.5 21.8-24.1 14.4-75.8 27.6-75.8 27.6h-654s-45.4-2-61.3-24.6c-.9-1.3-1.8-2.7-2.5-4.1-1.7-3.3-2.7-7.1-2.9-11.2l-4.5-22.1s5.6-3 6.9-11.4v-.1c.5-3.5.3-7.8-1.2-13.3 0-.1-.1-.2-.1-.2-.9-3.1-1.7-5.6-2.3-7.7-1.9-6.5-2-9.3 1.4-13 2.4-2.6 6.6-5.6 13.2-10.7 4.1-3.2 12.8-7.2 24.2-11.4 18.4-6.8 44.1-14.3 69.7-20.1h.2c31.5-7.1 62.7-11.6 79.9-8.9.5-.3.9-.6 1.4-.9 4.9-3.2 22.6-14.5 49.4-28.1.1-.1.2-.1.3-.1 48.3-24.5 126-56.3 211.9-62.2 0 0 6.3-.8 17.6-1.5 14.4-.9 36.9-1.6 65 .1 55.4 3.2 132.2 15.4 209.8 52.3 1.6.8 3.1 1.5 4.7 2.3l53.5 19.1h.1s2.7.4 4.7 3.7c1.1 1.9 2 4.8 1.9 9.1 0 3.4-.6 7.8-2.2 13.3-.4 1.4-.7 2.9-1 4.2-1.8 8.3-1.8 15.5-1.1 21.4.7 5.9 2.1 10.4 3.1 13 .7 1.8 1.2 2.7 1.2 2.7s1.5 7.9 2.5 18.9v.1c1.1 12.1 1.6 28.6-1.2 42z"/><path class="st17" d="M900.1 653.8c.1 9.1-6.3 17.1-15.3 18.6-2.5.4-4.6.6-5.3.7-.9.2-1.9.3-2.9.4l-47.4 4.9c-3.9-21.9-19.4-76-92.7-78.5-73.3-2.5-86.2 91.3-86.2 91.3L317.9 695c-4.1-70.8-64.1-119.6-128-89.6-63.8 30.1-49.9 92.1-49.9 92.1l-45.7-3.4c-.9-1-1.7-2.4-2.4-4v-.1c-4.1-10-4.5-29.5-4.5-29.5 2.8-4.9 3.8-10.5 4-15.3v-.1c.3-6.3-.8-11.5-1.2-13.1 0-.1 0-.2-.1-.2 0-.1-.1-.2-.1-.2-1.1-2.8-1.9-5.4-2.3-7.7-1-5.5-.2-9.7 1.4-13 3.9-8 12.7-10.5 13.2-10.7 7.8-4.2 15.9-8 24.2-11.4 23.1-9.4 47.4-15.8 69.7-20.1h.2c44.2-8.5 79.9-8.9 79.9-8.9.5-.3.9-.6 1.4-.9 15.5-10.4 32.1-19.8 49.4-28.1.1-.1.2-.1.3-.1C431.5 480.6 556.2 467 556.2 467c.2 0 .4-.1.6-.1 18.7-2.9 41-2.5 65 .1 69.8 7.4 154.5 33.3 209.8 52.3 32.9 11.3 55.4 20.2 58.1 21.3h.2c1.9.7 3.3 2.1 4.3 4 1.2 2.3 2 5.4 2.3 8.8.7 6.7 0 14.8-1 22-1.3 9.4-3.2 16.9-3.2 16.9 1.8 3.8 1.9 8.3 2.9 13.2 1.4 6.7 3.4 14.1 3.8 21.4v.1c.7 11 1 20.3 1.1 26.8z"/><path class="st6" d="M297.9 566.6s143.6-93.6 262.2-85.2c0 0 123.1-1.4 231.5 42.3 0 0-76.2 43-271.1 34.7l-222.6 8.2z"/><path class="st17" d="M330.5 561s124.6-81.3 227.5-73.9c0 0 106.8-1.2 200.9 36.7 0 0-66.1 37.3-235.3 30.1L330.5 561z"/><path class="st14" d="M895.6 575.3c-1.3 9.4-3.2 16.9-3.2 16.9s-7.8.2-17.3.1h-.4c-3.4-.1-7-.2-10.5-.4-7.1-.4-13.9-1.1-18.3-2.3-.3-.1-.6-.2-.8-.2-12.4-3.9-3.4-7.9-3.4-7.9l52.6-37 .4-.3c1.1 1.9 2 4.8 1.9 9.1.7 6.7 0 14.9-1 22z"/><path class="st13" d="M895.6 575.3c-1.3 9.4-3.2 16.9-3.2 16.9s-7.8.2-17.3.1h-.4c-3.4-.1-7-.2-10.5-.4-7.1-.4-13.9-1.1-18.3-2.3l23.3-18.8s16.8-15.7 24.2 0c.7 1.5 1.4 3 2.2 4.5z"/><path class="st17" d="M863.8 592.4s13.5-15.2 28.6-.1l-28.6.1z"/><path class="st13" d="m493.4 581.1 18.2-10h48.5l12.7 10z"/><circle class="st6" cx="742.8" cy="682.8" r="77.4"/><circle class="st14" cx="742.8" cy="682.8" r="50.6"/><circle class="st13" cx="742.8" cy="682.8" r="39.9"/><g><circle class="st6" cx="226.3" cy="682.8" r="77.4"/><circle class="st14" cx="226.3" cy="682.8" r="50.6"/><circle class="st13" cx="226.3" cy="682.8" r="39.9"/></g><g><path class="st13" d="M171.9 595.4c-8.7-1.8-29.3-4.4-47.2 5.2 0 0-35.2 8.4-16.3 20.2 0 0 28.1 3.4 43.8-5.9 10.3-6 17.3-12.1 21-15.5 1.4-1.3.7-3.6-1.3-4z"/><path class="st14" d="M105.6 608.9c1.2 2.4 4.1 5.1 10.7 4.6 11.6-.7 25.8-11 39.3-16.5 1.8-.7 16.3-1.7 16.3-1.7s-19.9-3.2-26-1.7c-6.1 1.6-37.5 10.1-40.3 15.3z"/></g><g><path class="st14" d="M124.9 658.5c-1.5 9-6.4 20.6-6.4 20.6s-1 3.4-3.4 3.9c-1.1.2-2.4-.1-4.1-1.6 0 0-7-2.6-12.7-13.1 0 0-6.4-12.7 7.3-14.6 4-.6 7.4-1.1 10.2-1.4 6.9-.9 10.1-.2 9.1 6.2z"/><path class="st13" d="M124.9 658.5c-1.5 9-6.4 20.6-6.4 20.6s-1 3.4-3.4 3.9c1.5-8.2 1.1-22.9.7-30.8 6.9-.8 10.1-.1 9.1 6.3z"/></g><g><path class="st13" d="m377.1 563.7-44.5.1 7.1-8.3 15.2-17.9h19.4s7.1 5.7 7.5 13.9c.2 3.7-1 7.9-4.7 12.2z"/><path d="m377.1 563.7-44.5.1 7.1-8.3 42.2-4c.1 3.7-1.1 7.9-4.8 12.2z" style="opacity:.33;fill:#fff"/></g></g><g><path class="st19" d="M582.7 760.2V786s20.8 25.5 20.8-.2v-25.7h-20.8zM655.7 760.2l2.8 25.8h18l-3.9-30.3z"/><path class="st20" d="m603.5 776.4-10.4 6.2s-7.6-13.4-14.3-11.8-35.4 32.2-35.4 32.2-12.4 12.7 6.2 16.1c18.5 3.4 51.1-8.5 51.1-8.5s9.5 0 8.4-15.4l-5.6-18.8zM652.3 776.4s13.5-7.8 20.2 2.3l3.9-2.6 13.4 31.7s5.6 14.1-9 14.7c-14.5.6-25.2 0-25.2 0s-9.5-2.4-5.6-11.9l2.3-34.2z"/><path class="st5" d="M577.6 796.4c-.3 0-.6-.1-.9-.3l-9.7-9.3c-.5-.5-.5-1.2 0-1.7s1.2-.5 1.7 0l9.7 9.3c.5.5.5 1.2 0 1.7-.1.2-.5.3-.8.3zM557.3 813.7c-7.7 0-12.5-1.8-12.8-1.9-.6-.2-.9-1-.7-1.6.2-.6 1-.9 1.6-.7.1 0 10.4 3.9 25.1 0 15.1-4.1 31.8-8.7 32-8.7.7-.2 1.3.2 1.5.9.2.7-.2 1.3-.9 1.5-.2 0-16.9 4.6-32 8.7-5.1 1.3-9.8 1.8-13.8 1.8zM676.5 802h-13.9c-.7 0-1.2-.5-1.2-1.2s.5-1.2 1.2-1.2h13.9c.7 0 1.2.5 1.2 1.2s-.5 1.2-1.2 1.2zM672.8 819.2c-9.1 0-16.9-1.7-17.4-1.8-.7-.1-1.1-.8-.9-1.5s.8-1.1 1.5-.9c.2 0 17.7 3.9 30.6 0 .7-.2 1.3.2 1.5.8.2.6-.2 1.3-.8 1.5-4.7 1.4-9.8 1.9-14.5 1.9z"/><ellipse class="st19" cx="588.3" cy="309.5" rx="17.4" ry="25.5"/><path class="st6" d="M572.9 297.6s-11.2-14.9 0-20.5 11.2-2.4 24.9 2.3c13.8 4.7 16.7-1.7 22.1 8.1 5.4 9.8 0 16.6 0 16.6s1.7 17.9-5.8 16.9c0 0 1.3 13.2-8.4 12.4l-2.2-9.8 2-9.5c1.6-7.5-5.9-8.5-4.5-11.6 1.4-3.1-7 2.8-10.1-5.3-3.1-8.1-4.8-7.3-8.1-1.7s-9.9 2.1-9.9 2.1z"/><path class="st19" d="M583.8 328.7s7 9.6-6.2 19.5c0 0 18.5 12.6 35.7 0-.2-.3-10.9-16.4-9.8-30.2l-19.7 10.7z"/><path d="M551.8 354.7s-18.5 12.9-21.9 44.9l14.2 51.1 16-54.4-8.3-41.6z" style="fill:#ef4b57"/><path class="st20" d="m556.3 563 4.5 85.4s.6 50 10.1 81.5l6.7 37.2h30.9v-194l16.3 48.9s10.1 44.9 20.8 59l8.4 83.7h26.4s2.2-98.3-2.8-134.3c-5.1-36-7.9-84.3-7.9-84.3L556.3 563z"/><path class="st19" d="M536.1 411.7s-13.6 24.4-41 26.1c0 0-6.7 3.4-10.6 0-3.9-3.4-8.4-8.4-14.6-9.5s-.6 5.6 0 6.7 4.4 4.1-2.9 4.3c-3.4.1-8.2-.5-12.4-1.1-8.2-1.2-12.2 9.8-5 14 .1.1.3.2.4.2 13.7 7.8 34.5 1.5 34.5 1.5l17.4-1.5s30.1 2.6 42.3-9.1l-8.1-31.6z"/><ellipse transform="rotate(-62.782 605.672 315.44)" class="st19" cx="605.7" cy="315.4" rx="5.5" ry="3.7"/><path class="st12" d="M579.6 344.2s-25.6 6.5-32.3 14c-6.7 7.6-7.3 43.3-7.3 43.3l12.4 164.3s31.5 4.2 51.7-6.5c20.2-10.7 69.4-3.9 69.4-3.9l-7-89.6-15.7-44.7 31.3 3.1s1-36-5.1-46.9c-6.2-11-15.2-23-33.7-28.4-18.5-5.3-30.9-4.8-30.9-4.8s-1.1 8.7-18.8 7.2c-.3.1-11.2-.6-14-7.1z"/><path class="st9" d="m527.1 401.5 55-.3 20.8 67.1H545l-19.3-64.9c-.3-.9.4-1.9 1.4-1.9z"/><path class="st19" d="m678 422.1-1.8 25.7s.9 22-18.2 18.6l-60.4-9.6s-32-5-33.7-17.3c-1.7-12.3 13.7-5.5 13.7-5.5s6 6.1 10.7-3c0 0-.5-10.1 3.6-4.5s4.5 11 4.5 11-.4 4.2 6.4 6.1c6.8 1.9 45.2 1.8 45.2 1.8s2.5-14.5 3.6-24.6l26.4 1.3z"/></g><g><path class="st22" d="m377.1 365 9.5-29s15.2-22.4 21.3-22c6.2.4 0 6.3-.9 9.4-.9 3.2-5 6.2 2.5 4.1 7.5-2.1 15.3-11.1 15-11.9-.3-.8 11.2-3.4 6.5 4.8-4.7 8.2-14.3 19-23.4 19.9s-14.9 32-14.9 32l-15.6-7.3zM317 773.2l4.1 28.1 27.1-5.8s-11.7-22.3-13-24.7l-18.2 2.4z"/><path class="st6" d="M314.2 801.9s-3.1-11.6 15.4-6.5c0 0 3.8 2.4 6.9-3.4 3.1-5.8 36.7 9.9 36.7 9.9s25.4 15.5 13.4 21.3l-71 1.7s-1.4.7-1.6-6.5c-.1-7.2.2-16.5.2-16.5z"/><path class="st16" d="M369.4 810.7c-.4 0-.7-.2-.9-.5-4.8-7.4-20.4-10.8-20.6-10.8-.6-.1-1-.7-.9-1.3.1-.6.7-1 1.3-.9.7.1 16.6 3.6 22 11.8.3.5.2 1.2-.3 1.6-.1 0-.4.1-.6.1zM379.4 819.1H319c-.6 0-1.1-.5-1.1-1.1 0-.6.5-1.1 1.1-1.1h60.3c.6 0 1.1.5 1.1 1.1.1.6-.4 1.1-1 1.1z"/><path class="st22" d="M200.7 767v18.9h15.1l2.4-18.9z"/><path class="st6" d="M191.5 792c.7-1 5.1-15.8 19.5-12.7 0 0 9.9.3 8.9 12.7-1 12.3.1 20.6.1 20.6s.6 11.3-6.9 12c-7.5.7-24.3 0-24.3 0s-9.9-4.1-5.1-14.1c4.7-9.9 7.8-18.5 7.8-18.5z"/><path class="st16" d="M209.5 803h-14.6c-.6 0-1.1-.5-1.1-1.1 0-.6.5-1.1 1.1-1.1h14.6c.6 0 1.1.5 1.1 1.1 0 .6-.5 1.1-1.1 1.1zM201.1 819.1c-8.7 0-13.4-3.7-13.7-3.9-.5-.4-.6-1.1-.2-1.6s1.1-.6 1.6-.2c.1.1 8.7 6.7 24.3 1.2.6-.2 1.2.1 1.4.7.2.6-.1 1.2-.7 1.4-4.9 1.8-9.2 2.4-12.7 2.4z"/><ellipse transform="rotate(-22.587 275.504 309.532)" class="st22" cx="275.5" cy="309.5" rx="20.4" ry="28"/><path class="st6" d="M286.1 295s10.3-8 4.4-15.2-22.6-15.4-33.9-7.2c0 0 3.1-16.2-6.9-13.6s-15.7 4.4-12.1 10.8c3.6 6.4 10 8.7 10 8.7s2.3 6.7-18.3 12.9-54 7.7-72.3-3.1c-18.3-10.8-37 15.7-20.8 32.1 2 2.1 3.9 3.8 5.8 5.2 4.2 3.3-.2 9.7-4.7 6.9-.2-.1-.3-.2-.5-.3-14.5-9.3-25.3 15.6-14.1 26.4 1.6 1.5 3.2 3.1 4.6 4.9 4.9 6.3 19.3 19.7 46.1 10.5 0 0 22.1-14.7 49.6-21.1s37.5-6.9 37.5-6.9l4.8-17.1s-11.8-11-9-15.9c2.8-5 4.2-10.9 11.9-10.9 7.6-.2 17.9-7.1 17.9-7.1z"/><path class="st22" d="m265.2 323.3-7.1 27.2-4 11.3 28.8 1.1v-32.4z"/><path class="st6" d="M210 506.4s-15.4 81.3-15.1 153.3c.3 72 2.7 109.7 2.7 109.7l26.8 2.4s14.4-91.9 17.5-105.6c3.1-13.7 16.1-61 16.1-61l57.3 174.2 26.7-4.8-16.1-122.7L310.1 511 210 506.4z"/><ellipse transform="rotate(-32.567 258.06 313.783)" class="st22" cx="258.1" cy="313.8" rx="5" ry="6.8"/><path class="st11" d="M282.9 345.9s24.7 2.6 35.2 18.5c10.5 15.9 24.9 47.4 32.4 47.1 7.5-.3 24.7-48.6 24.7-48.6l21.9 6.1-22.3 62.1c-2.1 5.8-6.1 10.7-11.5 13.6-5.7 3.1-15.9 4.5-23.7-3.4l-28.1-29.8-5.3 38.5c-1.3 9.3-.8 18.8 1.4 28l7.3 30.3c.9 3.6-1.8 7.1-5.5 7.2-19.1.7-71.9 2-99.4-3.5-2.6-.5-4.2-3.3-3.3-5.8 5.3-15 21.7-62 22.5-75.2 1-15.8-4.9-41.5-4.9-41.5s-26.4 5.8-36 16.5c-9.6 10.6 11.3 49 11.3 49l-12 12s-24-28.9-26.7-39.8c-2.7-10.9-13.7-30.5 6.9-44.9 13.5-9.4 26-17.3 33.1-21.6 3.8-2.3 8-4.1 12.3-5.2 12.6-3.3 40-10.2 46-9.6 0 0-1.5 14.5 11.1 14.1 0 0 15.6-2.3 12.6-14.1z"/><path class="st22" d="m190 465 21.1 24.7s14.7 5.5 20.9-3.1c0 0 3.4-6.2 11.3-3.1s9.9-10.3 4.8-12c0 0-11.7-8.2-20.2-1s-10.6 5.5-10.6 5.5l-19.7-20.6-7.6 9.6z"/></g></svg>