<svg version="1.1" id="Layer_1" xmlns="http://www.w3.org/2000/svg" xmlns:xlink="http://www.w3.org/1999/xlink" x="0" y="0" viewBox="0 0 1000 721" style="enable-background:new 0 0 1000 721" xml:space="preserve"><style>.st2{opacity:.12;fill:#231f20}.st2,.st3{clip-path:url(#SVGID_2_)}.st5{fill:#f1f2f2}.st6{fill:#ff4d53}.st9{fill:#353535}.st10{fill:#3f3f3f}.st11{fill:#333}.st12{fill:#1f568c}.st14{fill:#191a1e}.st15{fill:#f8fffd}.st16{fill:#18191d}.st17{fill:#fff}.st18{fill:#251925}.st19{fill:#1b1f2a}.st20{fill:#e6e7e8}.st22{fill:#5383bc}.st23{fill:#698faf}.st24{fill:#69b4cb}.st25{fill:#1b2733}.st26{opacity:.2;fill:#333}.st28{fill:#ff9203}.st29{fill:#fcbba4}.st30{fill:#171723}.st33{opacity:.15;fill:#231f20}.st35{fill:#f4b19d}</style><ellipse cx="502.4" cy="358.2" rx="488.3" ry="343.2" style="fill:#e3d4f9"/><defs><ellipse id="SVGID_1_" cx="501.6" cy="358" rx="467.7" ry="328.7"/></defs><clipPath id="SVGID_2_"><use xlink:href="#SVGID_1_" style="overflow:visible"/></clipPath><ellipse cx="501.6" cy="358" rx="467.7" ry="328.7" style="clip-path:url(#SVGID_2_);fill:#cfb5f6"/><path class="st2" d="M33.1 391.2s3.8-114.5 113.4-132c0 0 70.6-7 93.8-60.9 5.5-12.8 12.9-24.8 22.4-35 31.9-34.4 105.2-88.9 220.2-35.6 18.9 8.8 36 21.1 50.8 35.8 12.3 12.2 35.7 28.1 74.7 29.8 4.6.2 9.2-.4 13.6-1.7 32.8-9.4 193.1-49.2 276.9 43.6 93.7 103.7 57.2 77 70.4 150.1l-936.2 5.9z"/><path class="st2" d="M33.1 410.9s3.8-114.5 113.4-132c0 0 70.6-7 93.8-60.9 5.5-12.8 12.9-24.8 22.4-35 31.9-34.4 105.2-88.9 220.2-35.6 18.9 8.8 36 21.1 50.8 35.8 12.3 12.2 35.7 28.1 74.7 29.8 4.6.2 9.2-.4 13.6-1.7 32.8-9.4 193.1-49.2 276.9 43.6 93.7 103.7 57.2 77 70.4 150.1l-936.2 5.9z"/><g class="st3"><path style="fill:#bcbec0" d="M30.9 404.9h938.4v134.2H30.9z"/><path class="st5" d="M31.4 496.9c-.6 0-1.2-.4-1.4-1.1-.2-.8.3-1.5 1.1-1.7l272.1-62.9c.8-.2 1.5.3 1.7 1.1.2.8-.3 1.5-1.1 1.7L31.7 496.9h-.3zM204 539.1c-.8 0-1.4-.6-1.4-1.4 0-.7.6-1.3 1.3-1.4 5.9-1 235.3-67.6 356-102.8.7-.2 1.5.2 1.7 1 .2.7-.2 1.5-1 1.7-58.9 17.2-353.2 102.9-356.6 102.9zM592.5 539.1c-.6 0-1.2-.4-1.3-1-.2-.7.2-1.5 1-1.7l377.2-110.7c.7-.2 1.5.2 1.7 1 .2.7-.2 1.5-1 1.7L592.9 539.1h-.4z"/><path class="st5" d="M969.8 465.5H31.4c-.8 0-1.4-.6-1.4-1.4 0-.8.6-1.4 1.4-1.4h938.4c.8 0 1.4.6 1.4 1.4 0 .7-.6 1.4-1.4 1.4z"/><path class="st6" d="M33.7 523.2h935.6v16H33.7z"/><path style="fill:#1a2c36" d="M33.7 531.6h935.6v16H33.7z"/><path class="st5" d="M30 547.6h939.4v154.8H30z"/></g><ellipse cx="499.6" cy="446.7" rx="463.1" ry="8.5" style="opacity:.38;clip-path:url(#SVGID_2_);fill:#353535"/><g class="st3"><path class="st9" d="M260.1 404.1c-2.3 26.1-5.5 49.5-43.7 44.8-19.9-2.4-28.8-19.6-28.8-44.8s16.2-45.6 36.3-45.6 38.4 20.5 36.2 45.6z"/><path class="st10" d="M55 423s3.3 19.7 17.2 21.2 27.9 2.3 35.4-2.4l13.7-16.3L55 423z"/><path class="st11" d="M239 444.2c.8-.8 36.3 0 36.3 0s11.6-4.5 16.1-18.6l74.7-.9s6.1 17.9 18.6 19.5c12.6 1.6 26.9.7 32.1-1.6 5.5-2.3 17.2-17.9 15.5-34.3 0 0 9.4.8 10.2-5.5v-14.5l-3.1-3.4-187.5-3.1-15.8 1.5 2.9 60.9z"/><path class="st12" d="m141.6 339 56.9-41.3s63.1-19.5 138.8-5.5c0 0 46.8 10.1 67 38.2 0 0 31.2-2.3 35.1 29.6v30.1H434s-6-21.5-19-28c-4.4-2.2-11.2-1.8-15.3.8-7 4.5-18.2 15.6-17.7 38.7 0 0 3.9 14-7.8 14.8h-107s-5.9 2.3-7.5-5.8c0 0 2.6-28.3-12.4-43.1-6.4-6.3-16.3-7.2-23.6-2-8.4 5.9-18.2 19.1-18.6 45.1v20.7l-50.7 2.3-12.9-6.3-76.8.8-6.7 4.7H41.5s-3.2-5.5 0-9l6.1.4s-6.2-35.1-3.1-47.6c3.1-12.3 14-38 97.1-37.6z"/><path d="M45.4 380H148c.1 0 .2 0 .3.1 1.2.9 9.4 8.1 9.6 37.1 0 2.9 2.3 5.2 5.2 5.2H177c2.4 0 4.3 1.9 4.3 4.3 0 3.2 2.7 5.8 5.9 5.6l17.2-.9c.3 0 .5-.3.5-.6-.6-6-4.8-61.8 27.7-68.5.4-.1.9-.1 1.3-.1 4.4.2 26.3 3.2 25.7 48.2 0 .2 0 .3.1.5.3 1.2 1.8 6 7.4 5.6L377 416h.1c.5-.1 5.3-1.2 5.5-10.9v-.2c-.3-.7-2.4-4.8-7.4-5.3-.2 0-.4-.2-.5-.4-.4-3.4-2.6-27 20.1-43.5.4-.3.2-.9-.3-.9-5.7 0-25.6 2.2-30.3 32.9-.1.4-4.6 21.1-8.9 22.6-4.3 1.5-75.5.8-77.2.8h-.1c-.6.1-11.8 1.3-9.6-8.9v-.1c-.2-1.9-4.4-43.8-30.4-45.8 0 0-19.8-4.9-31.6 14.5-.2.3-.5.3-.8.1-.7-.6-2.4-1.2-6.1 1.7-5.1 4-144.5 2.7-154 2.6-.3 0-.5.2-.5.5v3.7c-.1.3.1.6.4.6z" style="opacity:.82;fill:#5383bc"/><ellipse class="st14" cx="234.3" cy="406.8" rx="26.1" ry="41.3"/><ellipse class="st15" cx="235.1" cy="408.3" rx="19.2" ry="30.4"/><ellipse class="st16" cx="236.1" cy="408.3" rx="15.8" ry="26.5"/><ellipse class="st17" cx="231.4" cy="408.3" rx="5.1" ry="8.6"/><ellipse class="st18" cx="231.4" cy="408.3" rx="3.2" ry="5.5"/><path class="st15" d="M228.1 384.7v16.6l3.3-1.5 1.7-18.3zM236.1 405s5.9 3.3 16.1-2.9c0 0 .7 8.6 0 12.5 0 0-7.4-5.2-16.1-4.9V405zM234.6 414.6l9.3 17.5 4-5.4-12.6-12.9zM228.7 415.6l-1.5 15.4s3.9 4.4 7.5 4.5l-3.2-18.6-2.8-1.3zM226.3 410.7s-6.5-.7-6.6 1.2l-.1-6.9 6.9 1.6-.2 4.1zM233.9 400.8s8.9-16 8.2-17.5c0 0 4.6 3.5 5.8 6.1l-13 12.7-1-1.3z"/><ellipse class="st14" cx="407.4" cy="401.7" rx="26.1" ry="41.3"/><ellipse class="st15" cx="408.2" cy="403.3" rx="19.2" ry="30.4"/><ellipse class="st16" cx="409.2" cy="403.3" rx="15.8" ry="26.5"/><ellipse class="st17" cx="404.5" cy="403.3" rx="5.1" ry="8.6"/><ellipse class="st18" cx="404.5" cy="403.3" rx="3.2" ry="5.5"/><path class="st15" d="M401.3 379.6v16.7l3.2-1.6 1.8-18.2zM409.2 400s5.9 3.3 16.1-2.9c0 0 .7 8.6 0 12.5 0 0-7.4-5.2-16.1-4.9V400zM407.8 409.5l9.3 17.6 3.9-5.5-12.5-12.8zM401.9 410.6l-1.5 15.4s3.9 4.4 7.5 4.5l-3.2-18.6-2.8-1.3zM399.4 405.6s-6.5-.7-6.6 1.2l-.1-6.9 6.9 1.6-.2 4.1zM407 395.8s8.9-16 8.2-17.5c0 0 4.6 3.5 5.8 6.1l-13 12.7-1-1.3z"/><path class="st19" d="M74.9 384.6H144s3.8.2 2.1 5.6l-2.1 10.2s-2.1 4.8-5.9 4.6H81s-3 .6-4.5-4.1c-1.6-4.7-3.9-12.5-3.9-12.5s-1.6-3.8 2.3-3.8z"/><path class="st14" d="m151.3 375.2 33.5-17.2s20.4-8.6 23.1 2.3c0 0-2.1 14.8-19.3 14.8-4.9.1-3.6.1-37.3.1zM74.2 375.2S65.9 362 56 358.1c0 0-8.3 6.2-11 17.1h29.2z"/><path class="st17" d="m56.7 360.4 8.2 6.3s-6.4 7.8-12.6 6.2c-6.2-1.6 4.4-12.5 4.4-12.5zM199.4 356.7s-9.1 4.4-12.3 8.3-18 11-34.3 10.2c0 0 26.3-14.2 35.8-17.2 9.5-3.1 10.8-1.3 10.8-1.3z"/><path class="st17" d="M189 369.5c1-3.3 4.4-11 13.5-11.4 1.3-.1 2.6.7 3.1 2 .7 1.8.8 5-2.9 9.3 0 0-8.8 7.2-12.9 3.4-.9-.8-1.1-2.1-.8-3.3z"/><path class="st14" d="M178.6 402.9c0 3.1-1.7 5.8-4.3 7.2-.6.3-1.3.6-1.9.8-.6.2-1.3.2-1.9.2-4.5 0-8.2-3.7-8.2-8.2s3.7-8.2 8.2-8.2c.7 0 1.3.1 1.9.2.7.2 1.3.4 1.9.8 2.6 1.4 4.3 4.1 4.3 7.2z"/><path class="st20" d="M178.6 402.9c0 3.1-1.7 5.8-4.3 7.2-.6.3-1.3.6-1.9.8-3.6-.9-6.2-4.1-6.2-8 0-3.9 2.7-7.1 6.2-8 .7.2 1.3.4 1.9.8 2.6 1.4 4.3 4.1 4.3 7.2z"/><ellipse class="st17" cx="174.3" cy="402.9" rx="4.3" ry="7.2"/><path class="st14" d="M64.8 402.1c0 3.1-1.2 5.8-3 7.2-.3.3-.7.5-1 .6-.6.3-1.2.4-1.8.4-3.2 0-5.8-3.7-5.8-8.2s2.6-8.2 5.8-8.2h.2c.7 0 1.4.2 2.1.6 2 1.3 3.5 4.2 3.5 7.6z"/><path class="st20" d="M64.8 402.1c0 3.1-1.2 5.8-3 7.2-.3.3-.7.5-1 .6-3.2-.1-5.7-3.7-5.7-8.2 0-3.6 1.7-6.7 4.1-7.8.7 0 1.4.2 2.1.6 2 1.3 3.5 4.2 3.5 7.6z"/><path class="st17" d="M64.8 402.1c0 3.1-1.2 5.8-3 7.2-2.1-1.2-3.6-4.1-3.6-7.6 0-3.1 1.2-5.8 3-7.2 2.1 1.3 3.6 4.2 3.6 7.6z"/><path d="M142.4 339c-5.9.4-54.8 4.5-75.6 27l93.9-.9 79-26.1h-97.3z" style="opacity:.79;fill:#5383bc"/><path class="st22" d="M279.1 363.5H276c-2.2 0-3.9-1.8-3.9-3.9v-.7c0-2.2 1.8-3.9 3.9-3.9h3.1c2.2 0 3.9 1.8 3.9 3.9v.7c.1 2.2-1.7 3.9-3.9 3.9z"/><ellipse class="st22" cx="362.6" cy="349.5" rx="8.6" ry="3.1"/><path class="st22" d="M151.3 339.1s-3.7-15.2-7.3-15.2c-3.6-.1-18.8 2.1-23.7 7.6-4.9 5.6 5.2 9.6 5.2 9.6l25.8-2z"/><g><path class="st14" d="M290.1 337.8s63.1 5.5 84.2-6.2c0 0 6.2-1.1 0-9.5s-38.2-29.5-55.4-26.4c-17.2 3.1-18.7 6.2-22.6 17.9l-6.2 24.2z"/><path class="st23" d="m293.2 335.5 7-24.9s1.1-14.1 25.1-11c24 3.2 40.4 17.1 47.4 25.7 0 0 5.6 3.3-1.9 6.7 0 0-58.1 9.7-77.6 3.5z"/><path class="st24" d="M316.2 299.5s12.5 28.3 13.2 37.4l6.8-.5s-6.5-34.3-12.9-37.3l-7.1.4zM337.5 302.2s9 25.2 10.6 32.9c0 0 7.6-1.2 8.5-1.1s-8.5-27.7-8.5-27.7l-10.6-4.1zM356.7 311.2l9.1 21.8h3.2l-6.4-17.6z"/></g><path class="st22" d="M287.8 339.5s1.4 6.9 6.6 6.9c0 0 4.2-6 7.4-6.9s22.7 4.6 23.5-4c.8-8.6-17.3-10.2-17.3-10.2s-8-3.1-11 1.6-.7 11.4-.7 11.4l-8.5 1.2z"/><g><path class="st25" d="M293.2 304.3s-2.3 11.7-7.8 24.9-16.5 9.8-16.5 9.8h-26.7l-99.8-.1h-.8l57.9-41.6s81.3-.1 87.5.7c6.2.8 6.2 6.3 6.2 6.3z"/><path class="st23" d="m235.4 335.5 36.7-.8s7 2.3 12.2-16.3l3.4-11s.8-8.6-7.8-7.8l-81.2-.1s-7.2 3.2-13.3 7.9c-6.1 4.6-41.4 29.8-41.4 29.8l91.4-1.7z"/><path class="st24" d="m200.6 299.5-30.2 28.9 24.1 3.6s17.8-25.1 32.7-32.5h-26.6zM238.7 299.5s-28.5 20.7-31.6 30.8h14.6s23.6-28.3 34.5-31.3l-17.5.5zM286.8 302.6s-35.2 22.8-37.6 32.7l16.5-.5s14.9-15.7 19.5-19c-.1 0 4.1-10.5 1.6-13.2z"/></g><path class="st14" d="M202.3 326.9s-2.7-7-13.7-7.3c-11-.3-14 8.9-14 8.9 8.5 7 29.7 1.6 29.7 1.6l-2-3.2zm-24.5 1.5s3.9-7 10.9-6.2c7 .8 7.4 1.6 10.7 6.2h-21.6z"/><path class="st25" d="m242.1 339-99.8-.1 10.5-6.6s8.6-5.5 22.6-5.5h49.2s7.7.8 15.5 8.6l2 3.6z"/></g><g class="st3"><path class="st9" d="M505 404.1c-2.3 26.1-5.5 49.5-43.7 44.8-19.9-2.4-28.8-19.6-28.8-44.8s16.2-45.6 36.3-45.6c20-.1 38.4 20.5 36.2 45.6z"/><path class="st10" d="M300 423s3.3 19.7 17.2 21.2c14 1.6 27.9 2.3 35.4-2.4l13.7-16.3L300 423z"/><path class="st11" d="M484 444.2c.8-.8 36.3 0 36.3 0s11.6-4.5 16.1-18.6l74.7-.9s6.1 17.9 18.6 19.5 26.9.7 32.1-1.6c5.5-2.3 17.2-17.9 15.5-34.3 0 0 9.4.8 10.2-5.5v-14.5l-3.1-3.4-187.5-3.1-15.8 1.5 2.9 60.9z"/><path class="st6" d="m386.5 339 56.9-41.3s63.1-19.5 138.8-5.5c0 0 46.8 10.1 67 38.2 0 0 31.2-2.3 35.1 29.6v30.1H679s-6-21.5-19-28c-4.4-2.2-11.2-1.8-15.3.8-7 4.5-18.2 15.6-17.7 38.7 0 0 3.9 14-7.8 14.8h-107s-5.9 2.3-7.5-5.8c0 0 2.6-28.3-12.4-43.1-6.4-6.3-16.3-7.2-23.6-2-8.4 5.9-18.2 19.1-18.6 45.1v20.7l-50.7 2.3-12.9-6.3-76.8.8-6.7 4.7h-16.6s-3.2-5.5 0-9l6.1.4s-6.2-35.1-3.1-47.6c3.2-12.3 14.1-38 97.1-37.6z"/><path class="st26" d="M290.4 380H393c.1 0 .2 0 .3.1 1.2.9 9.4 8.1 9.6 37.1 0 2.9 2.3 5.2 5.2 5.2H422c2.4 0 4.3 1.9 4.3 4.3 0 3.2 2.7 5.8 5.9 5.6l17.2-.9c.3 0 .5-.3.5-.6-.6-6-4.8-61.8 27.7-68.5.4-.1.9-.1 1.3-.1 4.4.2 26.3 3.2 25.7 48.2 0 .2 0 .3.1.5.3 1.2 1.8 6 7.4 5.6l109.7-.5h.1c.5-.1 5.3-1.2 5.5-10.9v-.2c-.3-.7-2.4-4.8-7.4-5.3-.2 0-.4-.2-.5-.4-.4-3.4-2.6-27 20.1-43.5.4-.3.2-.9-.3-.9-5.7 0-25.6 2.2-30.3 32.9-.1.4-4.6 21.1-8.9 22.6-4.3 1.5-75.5.8-77.2.8h-.1c-.6.1-11.8 1.3-9.6-8.9v-.1c-.2-1.9-4.4-43.8-30.4-45.8 0 0-19.8-4.9-31.6 14.5-.2.3-.5.3-.8.1-.7-.6-2.4-1.2-6.1 1.7-5.1 4-144.5 2.7-154 2.6-.3 0-.5.2-.5.5v3.7c.1.3.3.6.6.6z"/><ellipse class="st14" cx="479.2" cy="406.8" rx="26.1" ry="41.3"/><ellipse class="st15" cx="480.1" cy="408.3" rx="19.2" ry="30.4"/><ellipse class="st16" cx="481" cy="408.3" rx="15.8" ry="26.5"/><ellipse class="st17" cx="476.3" cy="408.3" rx="5.1" ry="8.6"/><ellipse class="st18" cx="476.3" cy="408.3" rx="3.2" ry="5.5"/><path class="st15" d="M473.1 384.7v16.6l3.2-1.5 1.8-18.3zM481 405s5.9 3.3 16.1-2.9c0 0 .7 8.6 0 12.5 0 0-7.4-5.2-16.1-4.9V405zM479.6 414.6l9.3 17.5 3.9-5.4-12.5-12.9zM473.7 415.6l-1.5 15.4s3.9 4.4 7.5 4.5l-3.2-18.6-2.8-1.3zM471.2 410.7s-6.5-.7-6.6 1.2l-.1-6.9 6.9 1.6-.2 4.1zM478.8 400.8s8.9-16 8.2-17.5c0 0 4.6 3.5 5.8 6.1l-13 12.7-1-1.3z"/><ellipse class="st14" cx="652.3" cy="401.7" rx="26.1" ry="41.3"/><ellipse class="st15" cx="653.2" cy="403.3" rx="19.2" ry="30.4"/><ellipse class="st16" cx="654.2" cy="403.3" rx="15.8" ry="26.5"/><ellipse class="st17" cx="649.5" cy="403.3" rx="5.1" ry="8.6"/><ellipse class="st18" cx="649.5" cy="403.3" rx="3.2" ry="5.5"/><path class="st15" d="M646.2 379.6v16.7l3.3-1.6 1.7-18.2zM654.2 400s5.9 3.3 16.1-2.9c0 0 .7 8.6 0 12.5 0 0-7.4-5.2-16.1-4.9V400zM652.7 409.5l9.3 17.6 4-5.5-12.6-12.8zM646.8 410.6l-1.5 15.4s3.9 4.4 7.5 4.5l-3.2-18.6-2.8-1.3zM644.4 405.6s-6.5-.7-6.6 1.2l-.1-6.9 6.9 1.6-.2 4.1zM651.9 395.8s8.9-16 8.2-17.5c0 0 4.6 3.5 5.8 6.1l-13 12.7-1-1.3z"/><path class="st19" d="M319.8 384.6h69.1s3.8.2 2.1 5.6l-2.1 10.2s-2.1 4.8-5.9 4.6h-57.1s-3 .6-4.5-4.1c-1.6-4.7-3.9-12.5-3.9-12.5s-1.6-3.8 2.3-3.8z"/><path class="st14" d="m396.2 375.2 33.5-17.2s20.4-8.6 23.1 2.3c0 0-2.1 14.8-19.3 14.8-4.8.1-3.6.1-37.3.1zM319.1 375.2s-8.3-13.2-18.2-17.1c0 0-8.3 6.2-11 17.1h29.2z"/><path class="st17" d="m301.6 360.4 8.2 6.3s-6.4 7.8-12.6 6.2c-6.2-1.6 4.4-12.5 4.4-12.5zM444.4 356.7s-9.1 4.4-12.3 8.3c-3.1 3.9-18 11-34.3 10.2 0 0 26.3-14.2 35.8-17.2 9.4-3.1 10.8-1.3 10.8-1.3z"/><path class="st17" d="M434 369.5c1-3.3 4.4-11 13.5-11.4 1.3-.1 2.6.7 3.1 2 .7 1.8.8 5-2.9 9.3 0 0-8.8 7.2-12.9 3.4-.9-.8-1.2-2.1-.8-3.3z"/><path class="st14" d="M423.5 402.9c0 3.1-1.7 5.8-4.3 7.2-.6.3-1.3.6-1.9.8-.6.2-1.3.2-1.9.2-4.5 0-8.2-3.7-8.2-8.2s3.7-8.2 8.2-8.2c.7 0 1.3.1 1.9.2.7.2 1.3.4 1.9.8 2.6 1.4 4.3 4.1 4.3 7.2z"/><path class="st20" d="M423.5 402.9c0 3.1-1.7 5.8-4.3 7.2-.6.3-1.3.6-1.9.8-3.6-.9-6.2-4.1-6.2-8 0-3.9 2.7-7.1 6.2-8 .7.2 1.3.4 1.9.8 2.6 1.4 4.3 4.1 4.3 7.2z"/><ellipse class="st17" cx="419.2" cy="402.9" rx="4.3" ry="7.2"/><path class="st14" d="M309.7 402.1c0 3.1-1.2 5.8-3 7.2-.3.3-.7.5-1 .6-.6.3-1.2.4-1.8.4-3.2 0-5.8-3.7-5.8-8.2s2.6-8.2 5.8-8.2h.2c.7 0 1.4.2 2.1.6 2 1.3 3.5 4.2 3.5 7.6z"/><path class="st20" d="M309.7 402.1c0 3.1-1.2 5.8-3 7.2-.3.3-.7.5-1 .6-3.2-.1-5.7-3.7-5.7-8.2 0-3.6 1.7-6.7 4.1-7.8.7 0 1.4.2 2.1.6 2 1.3 3.5 4.2 3.5 7.6z"/><path class="st17" d="M309.7 402.1c0 3.1-1.2 5.8-3 7.2-2.1-1.2-3.6-4.1-3.6-7.6 0-3.1 1.2-5.8 3-7.2 2.1 1.3 3.6 4.2 3.6 7.6z"/><path class="st26" d="M387.3 339c-5.9.4-54.8 4.5-75.6 27l93.9-.9 79-26.1h-97.3z"/><path class="st11" d="M524.1 363.5H521c-2.2 0-3.9-1.8-3.9-3.9v-.7c0-2.2 1.8-3.9 3.9-3.9h3.1c2.2 0 3.9 1.8 3.9 3.9v.7c0 2.2-1.8 3.9-3.9 3.9z"/><ellipse class="st11" cx="607.5" cy="349.5" rx="8.6" ry="3.1"/><path class="st9" d="M396.2 339.1s-3.7-15.2-7.3-15.2c-3.6-.1-18.8 2.1-23.7 7.6s5.2 9.6 5.2 9.6l25.8-2z"/><g><path class="st14" d="M535 337.8s63.1 5.5 84.2-6.2c0 0 6.2-1.1 0-9.5s-38.2-29.5-55.4-26.4c-17.2 3.1-18.7 6.2-22.6 17.9l-6.2 24.2z"/><path class="st23" d="m538.1 335.5 7-24.9s1.1-14.1 25.1-11c24 3.2 40.4 17.1 47.4 25.7 0 0 5.6 3.3-1.9 6.7.1 0-58.1 9.7-77.6 3.5z"/><path class="st24" d="M561.2 299.5s12.5 28.3 13.2 37.4l6.8-.5s-6.5-34.3-12.9-37.3l-7.1.4zM582.4 302.2s9 25.2 10.6 32.9c0 0 7.6-1.2 8.5-1.1.9.2-8.5-27.7-8.5-27.7l-10.6-4.1zM601.6 311.2l9.1 21.8h3.2l-6.4-17.6z"/></g><path class="st9" d="M532.7 339.5s1.4 6.9 6.6 6.9c0 0 4.2-6 7.4-6.9 3.2-.9 22.7 4.6 23.5-4 .8-8.6-17.3-10.2-17.3-10.2s-8-3.1-11 1.6-.7 11.4-.7 11.4l-8.5 1.2z"/><g><path class="st25" d="M538.1 304.3s-2.3 11.7-7.8 24.9-16.5 9.8-16.5 9.8h-26.7l-99.8-.1h-.8l57.9-41.6s81.3-.1 87.5.7c6.2.8 6.2 6.3 6.2 6.3z"/><path class="st23" d="m480.4 335.5 36.7-.8s7 2.3 12.2-16.3l3.4-11s.8-8.6-7.8-7.8l-81.2-.1s-7.2 3.2-13.3 7.9c-6.1 4.6-41.4 29.8-41.4 29.8l91.4-1.7z"/><path class="st24" d="m445.5 299.5-30.2 28.9 24.1 3.6s17.8-25.1 32.7-32.5h-26.6zM483.6 299.5s-28.5 20.7-31.6 30.8h14.6s23.6-28.3 34.5-31.3l-17.5.5zM531.7 302.6s-35.2 22.8-37.6 32.7l16.5-.5s14.9-15.7 19.5-19c0 0 4.2-10.5 1.6-13.2z"/></g><path class="st14" d="M447.2 326.9s-2.7-7-13.7-7.3c-11-.3-14 8.9-14 8.9 8.5 7 29.7 1.6 29.7 1.6l-2-3.2zm-24.4 1.5s3.9-7 10.9-6.2c7 .8 7.4 1.6 10.7 6.2h-21.6z"/><path class="st25" d="m487.1 339-99.8-.1 10.5-6.6s8.6-5.5 22.6-5.5h49.2s7.7.8 15.5 8.6l2 3.6z"/></g><g class="st3"><path class="st9" d="M770 404.1c-2.3 26.1-5.5 49.5-43.7 44.8-19.9-2.4-28.8-19.6-28.8-44.8s16.2-45.6 36.3-45.6c20-.1 38.5 20.5 36.2 45.6z"/><path class="st10" d="M565 423s3.3 19.7 17.2 21.2 27.9 2.3 35.4-2.4l1.8-22.8-54.4 4z"/><path class="st9" d="M671.8 400.2c-2.3 26.1-5.5 49.5-43.7 44.8-19.9-2.4-28.8-19.6-28.8-44.8 0-25.2 16.2-45.6 36.3-45.6s38.5 20.5 36.2 45.6z"/><ellipse class="st14" cx="646" cy="402.9" rx="26.1" ry="41.3"/><ellipse class="st15" cx="646.9" cy="404.4" rx="19.2" ry="30.4"/><ellipse class="st16" cx="647.8" cy="404.4" rx="15.8" ry="26.5"/><ellipse class="st17" cx="643.2" cy="404.4" rx="5.1" ry="8.6"/><ellipse class="st18" cx="643.2" cy="404.4" rx="3.2" ry="5.5"/><path class="st15" d="M639.9 380.8v16.6l3.3-1.5 1.7-18.3zM647.8 401.1s5.9 3.3 16.1-2.9c0 0 .7 8.6 0 12.5 0 0-7.4-5.2-16.1-4.9v-4.7zM646.4 410.7l9.3 17.5 4-5.4-12.6-12.9zM640.5 411.7l-1.5 15.4s3.9 4.4 7.5 4.5l-3.2-18.6-2.8-1.3zM638 406.8s-6.5-.7-6.6 1.2l-.1-6.9 6.9 1.6-.2 4.1zM645.6 396.9s8.9-16 8.2-17.5c0 0 4.6 3.5 5.8 6.1l-13 12.7-1-1.3z"/><path class="st11" d="M749 444.2c.8-.8 36.3 0 36.3 0s11.6-4.5 16.1-18.6l74.7-.9s6.1 17.9 18.6 19.5 26.9.7 32.1-1.6c5.5-2.3 17.2-17.9 15.5-34.3 0 0 9.4.8 10.2-5.5v-14.5l-3.1-3.4-187.5-3.1-15.8 1.5 2.9 60.9z"/><path d="m651.5 339 56.9-41.3s63.1-19.5 138.8-5.5c0 0 46.8 10.1 67 38.2 0 0 31.2-2.3 35.1 29.6v30.1H944s-6-21.5-19-28c-4.4-2.2-11.2-1.8-15.3.8-7 4.5-18.2 15.6-17.7 38.7 0 0 3.9 14-7.8 14.8h-107s-5.9 2.3-7.5-5.8c0 0 2.6-28.3-12.4-43.1-6.4-6.3-16.3-7.2-23.6-2-8.4 5.9-18.2 19.1-18.6 45.1v20.7l-50.7 2.3-12.9-6.3-76.8.8-6.7 4.7h-16.6s-3.2-5.5 0-9l6.1.4s-6.2-35.1-3.1-47.6c3.2-12.3 14.1-38 97.1-37.6z" style="fill:#ffab02"/><path class="st28" d="M555.4 380H658c.1 0 .2 0 .3.1 1.2.9 9.4 8.1 9.6 37.1 0 2.9 2.3 5.2 5.2 5.2H687c2.4 0 4.3 1.9 4.3 4.3 0 3.2 2.7 5.8 5.9 5.6l17.2-.9c.3 0 .5-.3.5-.6-.6-6-4.8-61.8 27.7-68.5.4-.1.9-.1 1.3-.1 4.4.2 26.3 3.2 25.7 48.2 0 .2 0 .3.1.5.3 1.2 1.8 6 7.4 5.6L887 416h.1c.5-.1 5.3-1.2 5.5-10.9v-.2c-.3-.7-2.4-4.8-7.4-5.3-.2 0-.4-.2-.5-.4-.4-3.4-2.6-27 20.1-43.5.4-.3.2-.9-.3-.9-5.7 0-25.6 2.2-30.3 32.9-.1.4-4.6 21.1-8.9 22.6-4.3 1.5-75.5.8-77.2.8h-.1c-.6.1-11.8 1.3-9.6-8.9v-.1c-.2-1.9-4.4-43.8-30.4-45.8 0 0-19.8-4.9-31.6 14.5-.2.3-.5.3-.8.1-.7-.6-2.4-1.2-6.1 1.7-5.1 4-144.5 2.7-154 2.6-.3 0-.5.2-.5.5v3.7c-.1.3.1.6.4.6z"/><ellipse class="st14" cx="744.2" cy="406.8" rx="26.1" ry="41.3"/><ellipse class="st15" cx="745.1" cy="408.3" rx="19.2" ry="30.4"/><ellipse class="st16" cx="746.1" cy="408.3" rx="15.8" ry="26.5"/><ellipse class="st17" cx="741.4" cy="408.3" rx="5.1" ry="8.6"/><ellipse class="st18" cx="741.4" cy="408.3" rx="3.2" ry="5.5"/><path class="st15" d="M738.1 384.7v16.6l3.3-1.5 1.7-18.3zM746.1 405s5.9 3.3 16.1-2.9c0 0 .7 8.6 0 12.5 0 0-7.4-5.2-16.1-4.9V405zM744.6 414.6l9.3 17.5 4-5.4-12.6-12.9zM738.7 415.6l-1.5 15.4s3.9 4.4 7.5 4.5l-3.2-18.6-2.8-1.3zM736.3 410.7s-6.5-.7-6.6 1.2l-.1-6.9 6.9 1.6-.2 4.1zM743.9 400.8s8.9-16 8.2-17.5c0 0 4.6 3.5 5.8 6.1l-13 12.7-1-1.3z"/><ellipse class="st14" cx="917.4" cy="401.7" rx="26.1" ry="41.3"/><ellipse class="st15" cx="918.2" cy="403.3" rx="19.2" ry="30.4"/><ellipse class="st16" cx="919.2" cy="403.3" rx="15.8" ry="26.5"/><ellipse class="st17" cx="914.5" cy="403.3" rx="5.1" ry="8.6"/><ellipse class="st18" cx="914.5" cy="403.3" rx="3.2" ry="5.5"/><path class="st15" d="M911.3 379.6v16.7l3.2-1.6 1.8-18.2zM919.2 400s5.9 3.3 16.1-2.9c0 0 .7 8.6 0 12.5 0 0-7.4-5.2-16.1-4.9V400zM917.8 409.5l9.2 17.6 4-5.5-12.5-12.8zM911.8 410.6l-1.5 15.4s3.9 4.4 7.5 4.5l-3.2-18.6-2.8-1.3zM909.4 405.6s-6.5-.7-6.6 1.2l-.1-6.9 6.9 1.6-.2 4.1zM917 395.8s8.9-16 8.2-17.5c0 0 4.6 3.5 5.8 6.1l-13 12.7-1-1.3z"/><path class="st19" d="M584.9 384.6H654s3.8.2 2.1 5.6l-2.1 10.2s-2.1 4.8-5.9 4.6H591s-3 .6-4.5-4.1c-1.6-4.7-3.9-12.5-3.9-12.5s-1.6-3.8 2.3-3.8z"/><path class="st14" d="m661.3 375.2 33.5-17.2s20.4-8.6 23.1 2.3c0 0-2.1 14.8-19.3 14.8-4.9.1-3.6.1-37.3.1zM584.2 375.2s-8.3-13.2-18.2-17.1c0 0-8.3 6.2-11 17.1h29.2z"/><path class="st17" d="m566.7 360.4 8.2 6.3s-6.4 7.8-12.6 6.2c-6.3-1.6 4.4-12.5 4.4-12.5zM709.4 356.7s-9.1 4.4-12.3 8.3c-3.1 3.9-18 11-34.3 10.2 0 0 26.3-14.2 35.8-17.2 9.5-3.1 10.8-1.3 10.8-1.3z"/><path class="st17" d="M699 369.5c1-3.3 4.4-11 13.5-11.4 1.3-.1 2.6.7 3.1 2 .7 1.8.8 5-2.9 9.3 0 0-8.8 7.2-12.9 3.4-.9-.8-1.2-2.1-.8-3.3z"/><path class="st14" d="M688.6 402.9c0 3.1-1.7 5.8-4.3 7.2-.6.3-1.3.6-1.9.8-.6.2-1.3.2-1.9.2-4.5 0-8.2-3.7-8.2-8.2s3.7-8.2 8.2-8.2c.7 0 1.3.1 1.9.2.7.2 1.3.4 1.9.8 2.5 1.4 4.3 4.1 4.3 7.2z"/><path class="st20" d="M688.6 402.9c0 3.1-1.7 5.8-4.3 7.2-.6.3-1.3.6-1.9.8-3.6-.9-6.2-4.1-6.2-8 0-3.9 2.7-7.1 6.2-8 .7.2 1.3.4 1.9.8 2.5 1.4 4.3 4.1 4.3 7.2z"/><ellipse class="st17" cx="684.3" cy="402.9" rx="4.3" ry="7.2"/><path class="st14" d="M574.7 402.1c0 3.1-1.2 5.8-3 7.2-.3.3-.7.5-1 .6-.6.3-1.2.4-1.8.4-3.2 0-5.8-3.7-5.8-8.2s2.6-8.2 5.8-8.2h.2c.7 0 1.4.2 2.1.6 2.1 1.3 3.5 4.2 3.5 7.6z"/><path class="st20" d="M574.7 402.1c0 3.1-1.2 5.8-3 7.2-.3.3-.7.5-1 .6-3.2-.1-5.7-3.7-5.7-8.2 0-3.6 1.7-6.7 4.1-7.8.7 0 1.4.2 2.1.6 2.1 1.3 3.5 4.2 3.5 7.6z"/><path class="st17" d="M574.7 402.1c0 3.1-1.2 5.8-3 7.2-2.1-1.2-3.6-4.1-3.6-7.6 0-3.1 1.2-5.8 3-7.2 2.2 1.3 3.6 4.2 3.6 7.6z"/><path class="st28" d="M652.4 339c-5.9.4-54.8 4.5-75.6 27l93.9-.9 79-26.1h-97.3z"/><path class="st11" d="M789.1 363.5H786c-2.2 0-3.9-1.8-3.9-3.9v-.7c0-2.2 1.8-3.9 3.9-3.9h3.1c2.2 0 3.9 1.8 3.9 3.9v.7c0 2.2-1.7 3.9-3.9 3.9z"/><ellipse class="st11" cx="872.6" cy="349.5" rx="8.6" ry="3.1"/><path class="st28" d="M661.3 339.1s-3.7-15.2-7.3-15.2c-3.6-.1-18.8 2.1-23.7 7.6-4.9 5.6 5.2 9.6 5.2 9.6l25.8-2z"/><g><path class="st14" d="M800.1 337.8s63.1 5.5 84.2-6.2c0 0 6.2-1.1 0-9.5s-38.2-29.5-55.4-26.4c-17.2 3.1-18.7 6.2-22.6 17.9l-6.2 24.2z"/><path class="st23" d="m803.2 335.5 7-24.9s1.1-14.1 25.1-11c24 3.2 40.4 17.1 47.4 25.7 0 0 5.6 3.3-1.9 6.7 0 0-58.1 9.7-77.6 3.5z"/><path class="st24" d="M826.2 299.5s12.5 28.3 13.2 37.4l6.8-.5s-6.5-34.3-12.9-37.3l-7.1.4zM847.5 302.2s9 25.2 10.6 32.9c0 0 7.6-1.2 8.5-1.1.9.2-8.5-27.7-8.5-27.7l-10.6-4.1zM866.7 311.2l9 21.8h3.3l-6.4-17.6z"/></g><path class="st28" d="M797.7 339.5s1.4 6.9 6.6 6.9c0 0 4.2-6 7.4-6.9 3.2-.9 22.7 4.6 23.5-4 .8-8.6-17.3-10.2-17.3-10.2s-8-3.1-11 1.6-.7 11.4-.7 11.4l-8.5 1.2z"/><g><path class="st25" d="M803.2 304.3s-2.3 11.7-7.8 24.9-16.5 9.8-16.5 9.8h-26.7l-99.8-.1h-.8l57.9-41.6s81.3-.1 87.5.7c6.2.8 6.2 6.3 6.2 6.3z"/><path class="st23" d="m745.4 335.5 36.7-.8s7 2.3 12.2-16.3l3.4-11s.8-8.6-7.8-7.8l-81.2-.1s-7.2 3.2-13.3 7.9c-6.1 4.6-41.4 29.8-41.4 29.8l91.4-1.7z"/><path class="st24" d="m710.6 299.5-30.2 28.9 24.1 3.6s17.8-25.1 32.7-32.5h-26.6zM748.6 299.5s-28.5 20.7-31.6 30.8h14.6s23.6-28.3 34.5-31.3l-17.5.5zM796.8 302.6s-35.2 22.8-37.6 32.7l16.5-.5s14.9-15.7 19.5-19c-.1 0 4.1-10.5 1.6-13.2z"/></g><path class="st14" d="M712.3 326.9s-2.7-7-13.7-7.3c-11-.3-14 8.9-14 8.9 8.5 7 29.7 1.6 29.7 1.6l-2-3.2zm-24.5 1.5s3.9-7 10.9-6.2c7 .8 7.4 1.6 10.7 6.2h-21.6z"/><path class="st25" d="m752.1 339-99.8-.1 10.5-6.6s8.6-5.5 22.6-5.5h49.2s7.7.8 15.5 8.6l2 3.6z"/></g><g class="st3"><path class="st29" d="m620.2 326 4.2 23.2 22.2-24.3-4-15.4z"/><path class="st17" d="m625 330.7 7.7 9.3 13.5-16.6s4.4 6.1 7.2 5.9L635 461.2l-5.3 1.1-7.9-130.8 3.2-.8z"/><path class="st29" d="m599.1 636.5-2.1 7.8 7.4 1.7 3.1-7.4zM669.3 635.4s.5 9.5 0 9 9.5 0 9.5 0v-9h-9.5z"/><path class="st30" d="M598 642.9s-13.7 1-16.9 5.2c-3.2 4.2 1.1 6.3 5.3 6.3h21.1l-1.1-10-8.4-1.5zM670.9 642.2s-13.4 3.2-15.8 7.9c-2.4 4.7 2.1 6.1 6.3 5.4 4.2-.7 20.8-3.5 20.8-3.5l-2.7-9.7-8.6-.1z"/><path d="M611.2 457.5 594.3 638l14.3 2.6s13.2-57.2 16.4-69.2c2.9-10.7 13-72.2 15.3-85 .1-.5-.1.5 0 1.1L666.1 638l15.3-.5s0-44.4-1.1-65.5-4.3-66.6-9-86.1c-4.7-19.4-8.4-35.9-8.4-35.9l-51.7 7.5z" style="fill:#1b4f7a"/><ellipse transform="rotate(-81.205 626.014 304.364)" class="st29" cx="626" cy="304.3" rx="27.4" ry="18.3"/><ellipse transform="rotate(-5.826 609.259 299.137)" class="st29" cx="609.1" cy="299.1" rx="4.3" ry="6.4"/><path d="M612 292.4s-.2-11.1-2.9-10.8c-4.2.5-1.6-9.5-1.6-10.5 0-1.1-2.1-11.6 8.4-11.6s27.5 1.1 37 10.6 8.4 14.8 2.1 22.2c-6.3 7.4-9.5 15.8-9.5 15.8l-1-6.4-1.1 1.6s-1.9-7.2-1-14.4c0 0-.1-.9-4.3-.9s-7.3-4.8-7.3-4.8 6.5 1.9 6.9-1.9c.4-3.9-15.6-3.3-19.7 1.2-4.1 4.4-6 9.9-6 9.9z" style="fill:#501a0e"/><path class="st12" d="M623.4 332.3s11 107.7 6.1 125.1l-21.4 2.1s11.5-48.4 4.4-66.7c0 0-2.8 39.8-19.7 34.5 0 0-8.4-2.1-21.1-21.1S554.8 384 554.8 384l6.3-6.3 26.6 18.4c.4.3.9 0 .9-.4l5.1-37s1.1-18 12.7-21.1c11.6-3.2 11.8-6.3 12.8-6.9s4.2 1.6 4.2 1.6z"/><path class="st29" d="m561.1 377.7-9.5-11.6s-3.2 0 0 5.8c0 0-23.2-4.8-20.1 2.6s18 8.4 18 8.4 3.2-1.1 5.3 1.1l6.3-6.3zM665.6 463.3l-5.3 9.5-9.5-6.4 9.5-9.5z"/><path class="st30" d="M633.4 340.6s4.8 9.7 3.7 9.7h-7.5l3.8-9.7z"/><path class="st30" d="m631.7 349.2-3 82.4s3.2 17.2 4.8 17 5.9-18.1 5.9-18.1l-5.3-81.3h-2.4z"/><ellipse transform="rotate(-60 647.128 305.42)" class="st29" cx="647.1" cy="305.4" rx="6.4" ry="4.3"/><path class="st12" d="M649.2 325.7s-16.9 77.9-13.7 131.8l27.5-5.3s-1.6-51.2 5.8-69.2l13.3 35.8c.3.7.2 1.5-.2 2.2l-21.6 35.9 5.3 6.3 21.1-19s15.5-13.7 14.8-28.5c-1.1-23.2-20.1-65.5-20.1-65.5s-6.5-19.6-28.1-20.9l-4.1-3.6z"/><ellipse class="st33" cx="633.4" cy="650.3" rx="68.5" ry="12.7"/></g><g class="st3"><path d="M374 295.2s1.2 14.8-1.9 28.2c-.7 2.9-.2 5.9 1.4 8.5 3.9 6.2 11.9 15.7 21.7 6.5.7-.7 1.3-1.6 1.5-2.6l3-13.9-25.7-26.7z" style="fill:#efac9c"/><path class="st35" d="M331.1 628.7h10.4v9.9h-10.4zM391.9 629.8l1.4 8.8 10.7-1.3-2.9-8.6z"/><path class="st30" d="M329.8 635.4v9.3s26.8 2.8 26.9 0c.1-2.8-7.2-8.1-15.1-9.3h-11.8zM391.9 635.4V646h27.6s3.5-6.4-16.4-11.3l-11.2.7z"/><ellipse transform="rotate(-5.826 395.02 293.71)" class="st35" cx="394.9" cy="293.6" rx="19.3" ry="31.1"/><ellipse transform="rotate(-74.377 412.53 291.458)" class="st35" cx="412.5" cy="291.4" rx="6.3" ry="3.9"/><path class="st30" d="M345.2 455.5s-7.1 72-10.4 83c-3.3 11-5.6 48.1-6.6 58.1-1.1 10 1.1 34.2 1.1 34.2h13s6.3-47.8 7.9-58.3c1.3-8.3 6.5-32.5 8.2-41.2 1.6-8.2 13.7-45.6 13.7-45.6s3.3 47.3 3.3 60.5 7.7 55 7.7 55l7.7 31.9L404 632s-1.6-45.6-4.9-63.2c-3.3-17.6 1.1-64.9 1.1-64.9l2.2-45.1-57.2-3.3zM413.9 285.6s-1.1-2.7 0-5.7 0-9.7-2.2-13c0 0 0-1.8 3.8-8s1.7-10.6-4.9-10.6-42.9 15.4-42.9 15.4-11 3.3-4.4 17.6l9.1 15.1 5.2-7.4s5.8-5.9 1.8-11.7c0 0 7-9.2 14.7-9.2 3.2 0 5.7.5 7.6 1 2.3.7 4.2 2.3 5.4 4.4 1.9 3.5 5.3 9.8 6.8 12.1z"/><path class="st35" d="M501.9 397.8h6.1s6-4.4 10.4-2.2l2.2.8h8.3c.9 0 1.7.2 2.5.6.8.5 1.4 1.2.5 2.1-.6.6-1.5.9-2.4.9h-6s1.6 7.7-7.2 7.7c-5.5 0-8.8-2.2-8.8-2.2l-5.5-.1v-7.6z"/><ellipse transform="rotate(-5.826 374.12 292.61)" class="st35" cx="374" cy="292.5" rx="3.9" ry="6.3"/><path class="st17" d="M371.8 321.5s6.9 15.8 15.7 18c8.8 2.2 11.1-12.9 11.1-12.9s6.5-3.6 26.3 25c0 0 17.1 23.2 33.3 29.8s44.8 15.3 44.8 15.3v9.4s-37.4 1.6-58.3-8.3l-20.9-9.9-17.6 1.1-1.6 73.1s-16.5 2.3-41.2-3.8c-8.9-2.2-21.5-.5-21.5-.5l3.8-36.2s-18.7-2.8-17.6-19.3c1.1-16.5 4.4-52.8 4.4-52.8s.7-20 17.4-23.7 21.9-4.3 21.9-4.3z"/><path class="st35" d="M399.6 405.7s3.2-3 5.5-4.4l1.3-6.4s2-1.6 2 1.7v4.6s8.8-4.6 9.9 3.1c1.1 7.7-7.7 8.8-7.7 8.8l-9 2.2-2-9.6z"/><path class="st5" d="M335.8 336s14.9-13.6 20.8 5.2l-5.4 48.9s0 7.7 3.3 8.8c3.3 1.1 45.1 5.8 45.1 5.8l2.2 11.8-56.1 5s-21.6-3.1-17.9-28.2c3.7-25.2 3.6-50.9 8-57.3z"/><ellipse class="st33" cx="371.5" cy="644.7" rx="68.5" ry="12.7"/></g></svg>