<svg version="1.1" id="Layer_1" xmlns="http://www.w3.org/2000/svg" x="0" y="0" viewBox="0 0 1000 749.8" style="enable-background:new 0 0 1000 749.8" xml:space="preserve"><style>.st0{opacity:.21;fill:#8b22e2}.st1{fill:#262626}.st3{fill:#8b22e2}.st4{fill:#e6e7e8}.st7{font-family:&apos;MyriadPro-Regular&apos;}.st8{font-size:13.6836px}.st9{fill:#fff}.st10{fill:#dd9e7a}.st11{fill:#2c2d2d}.st18{opacity:.18}.st21{fill:#345689}.st22{opacity:.1}.st24{fill:#96d9c9}.st25{fill:#72b29e}.st27{fill:#182f35}.st28{fill:#385a66}</style><path class="st0" d="M109.1 728.1S54 481.4 131.6 372.9 170.6 117 241.9 73 514-33.6 656.8 55.8 869.5 154.7 902 253.5s35.6 265 23.1 335.7-30.9 140.2-30.9 140.2l-785.1-1.3z"/><path class="st0" d="M50.5 737.6S-4.6 490.9 73 382.4s39-255.9 110.3-299.9S455.4-24.2 598.2 65.3 810.9 164.1 843.4 263s35.6 265 23.1 335.7-30.9 140.2-30.9 140.2l-785.1-1.3z"/><path class="st1" d="M856.7 615.1H168.1c-9.1 0-16.5-7.4-16.5-16.5v-469c0-9.1 7.4-16.5 16.5-16.5h688.6c9.1 0 16.5 7.4 16.5 16.5v469c.1 9.1-7.3 16.5-16.5 16.5z"/><path style="fill:#f1f2f2" d="M209.3 128.8h606.3v470.6H209.3z"/><path class="st3" d="M208.9 128.2h606.7v36.5H208.9z"/><path class="st4" d="M473.5 239.4H261.1c-2.8 0-5.2-2.3-5.2-5.2V214c0-2.8 2.3-5.2 5.2-5.2h212.5c2.8 0 5.2 2.3 5.2 5.2v20.3c-.1 2.8-2.4 5.1-5.3 5.1zM469.6 481H257.2c-2.8 0-5.2-2.3-5.2-5.2v-20.3c0-2.8 2.3-5.2 5.2-5.2h212.5c2.8 0 5.2 2.3 5.2 5.2v20.3c-.1 2.9-2.4 5.2-5.3 5.2zM724.2 481H511.7c-2.8 0-5.2-2.3-5.2-5.2v-20.3c0-2.8 2.3-5.2 5.2-5.2h212.5c2.8 0 5.2 2.3 5.2 5.2v20.3c-.1 2.9-2.4 5.2-5.2 5.2zM473.5 562.6H253.6c-2.8 0-5.2-2.3-5.2-5.2v-20.3c0-2.8 2.3-5.2 5.2-5.2h219.9c2.8 0 5.2 2.3 5.2 5.2v20.3c0 2.9-2.3 5.2-5.2 5.2z"/><path class="st3" d="M605.7 566.6H536c-4.4 0-7.9-3.5-7.9-7.9V536c0-4.4 3.5-7.9 7.9-7.9h69.7c4.4 0 7.9 3.5 7.9 7.9v22.7c0 4.3-3.5 7.9-7.9 7.9z"/><path d="M703.7 567.6H634c-4.4 0-7.9-3.5-7.9-7.9V537c0-4.4 3.5-7.9 7.9-7.9h69.7c4.4 0 7.9 3.5 7.9 7.9v22.7c0 4.4-3.5 7.9-7.9 7.9z" style="fill:none;stroke:#8b22e2;stroke-width:2;stroke-miterlimit:10"/><path class="st4" d="M740.2 317.8h-483c-2.8 0-5.2-2.3-5.2-5.2v-23.4c0-2.8 2.3-5.2 5.2-5.2h483.1c2.8 0 5.2 2.3 5.2 5.2v23.4c-.1 2.9-2.4 5.2-5.3 5.2zM740.2 406.7h-483c-2.8 0-5.2-2.3-5.2-5.2v-23.4c0-2.8 2.3-5.2 5.2-5.2h483.1c2.8 0 5.2 2.3 5.2 5.2v23.4c-.1 2.9-2.4 5.2-5.3 5.2zM730 239.4H517.6c-2.8 0-5.2-2.3-5.2-5.2V214c0-2.8 2.3-5.2 5.2-5.2H730c2.8 0 5.2 2.3 5.2 5.2v20.3c0 2.8-2.3 5.1-5.2 5.1z"/><path style="fill:#939598" d="M174.8 284.1h5.5v157.7h-5.5z"/><text transform="translate(255.925 198.319)" class="st7 st8">First Name*</text><text transform="translate(236.251 151.018)" class="st9 st7 st8">FORM</text><text transform="translate(512.232 194.516)" class="st7 st8">Last Name*</text><text transform="translate(259.145 274.668)" class="st7 st8">Email*</text><text transform="translate(255.925 354.434)" class="st7 st8">Contact Number*</text><text transform="translate(255.925 434.928)" class="st7 st8">Address*</text><text transform="translate(506.545 438.341)" class="st7 st8">State*</text><text transform="translate(555.063 553.464)" class="st9 st7 st8">Save</text><text transform="translate(643.25 553.464)" class="st7 st8">Continue</text><text transform="translate(256.869 518.58)" class="st7 st8">password*</text><g><path class="st10" d="M818 687.5v25.7h22.5v-28.9z"/><path class="st11" d="M842.6 728h-56.5c-.7-10.8 29.5-16 29.5-16v-2h25.7l1.3 18z"/><path class="st10" d="M885.9 281.9c-3.4 7.5-2.2 3-6.4 13.5s-15 5.2-25.5 1.7c-8.9-3-14.3-12.7-12.9-16.9.2-.7.7-1.3 1.4-1.6 4.5-2.1 5.6-16.4 5.6-16.4l33.8-25.7-.2 24.6-.1 10.9s7.7 2.4 4.3 9.9z"/><path d="m881.9 236.5-.2 24.6-40.5 19.1c.2-.7.7-1.3 1.4-1.6 4.5-2.1 5.6-16.4 5.6-16.4l33.7-25.7z" style="opacity:.13;fill:#282828"/><ellipse transform="rotate(-79.653 857.638 232.06)" class="st10" cx="857.6" cy="232.1" rx="33.7" ry="24.7"/><path class="st10" d="M871.3 687.2v25.7h22.5V684z"/><path class="st11" d="M895.9 727.7h-56.5c-.7-10.8 29.5-16 29.5-16v-2h25.7l1.3 18z"/><path d="M797.3 369.6s-25.8 82.6-13.6 149.9c12.2 67.3 26.8 179.2 26.8 179.2h31.4V596.2l-8.4-96.2 1.7-13.9 10.1 81.6L863.8 697h31.7l2.8-81.8s-1-52.4 0-64.6c1-12.2-5.7-135.2-20.5-170-3.1-7.6-80.5-11-80.5-11z" style="fill:#355389"/><path d="M837 254s-16 1.2-15.7-23.9c0 0-20.6-16.4-2.8-33.5l4.2 2.4s-6.7-28.9 27.9-16.4c0 0 10.5-15.3 25.5 4.9 0 0 6.3-7.3 13.9 11.2 0 0 20.9 6.3 7.3 27.5 0 0 11.2 8.4-1 16 0 0 1.2 9.4-8 6.6l-7.5 11.5s1.7-27.2 1.8-28.7c.1-1.5-7.1.6-5.8-10.7 0 0-7.9-9.3-5.7-19.1 0 0-17.4-6.7-20.5 3.1 0 0 2.5 4.5-6.9 6.3-9.4 1.7-10.3 16.3-10.3 16.3s-2.9 18.9 3.6 26.5z" style="fill:#05090a"/><path d="M847.5 267.1s-3.5 22.2 15.7 21c.2 0 .4 0 .6-.1 0 0 11.5 3.8 17.7-16l20.6 9.8s23 10.8 12.6 39.7c0 0-15.7 45-25.1 54.4-9.4 9.4-20.2 22-33.5 5.2l-58.9-8.1-13.6-30.2 24.4-43.2c.1-.1 1.6-38.9 39.5-32.5z" style="fill:#fa0"/><path class="st10" d="M840.1 338.2s-13.2-11.9-11.8-20.4c.8-4.6 1.3-7.6 1.7-9.3.3-1.3 0-2.7-.8-3.8l-3-5.9s-1.9-6.2 2.8-2.8c3.6 2.6 5.2 6 5.8 8.2.3 1 1.4 1.5 2.3.9 2.5-1.5 6.3-4.6 3.8-8.5-3.6-5.5-6.9-15.4-.9-12.6 6 2.9 14.7 16.5 10.5 24.3-4.2 7.8-6.3 11.8-6.3 11.8l6.3 8.6-10.4 9.5z"/><path d="M756.9 299.5h50.4c.4 0 .8 0 1.2-.2 1.4-.4 5.7-.9 7.1 6.9 1.7 9.4 6.7 31.9 6.7 31.9s1 5-5 4.2c-5.3-.7-41.1.8-50 1.2-1.7.1-3.4-.8-4.3-2.3-.3-.6-.6-1.2-.9-2.1-1-3.2-6.5-30.4-7.2-34.1-.1-.2-.1-.5-.2-.7-.4-1-1.6-4.8 2.2-4.8z" style="fill:#4d5051"/><circle cx="787.3" cy="319.3" r="3.3" style="fill:#888989"/><path class="st10" d="M748.8 308.4s3.4 19.1 7.1 19.1 11.2-1 11.2-1 2.4-1.2 0-3.5 2.6-3.4-.8-6.9.8-5.6-2.1-7.7c-2.9-2.1-16.5-5.1-15.4 0z"/><ellipse transform="rotate(-66.165 885.888 237.245)" class="st10" cx="885.9" cy="237.2" rx="8.1" ry="6"/><g class="st18"><path class="st1" d="M840.1 338.2c2 3.4 3.8 6.9 5.7 10.3 1.9 3.5 3.6 7 5.5 10.4 1.8 3.5 3.5 7 5.3 10.6l2.6 5.3c.8 1.8 1.7 3.6 2.5 5.4-1-1.7-1.9-3.4-2.9-5.1l-2.8-5.2c-1.9-3.5-3.6-7-5.5-10.4-1.8-3.5-3.5-7-5.3-10.6-1.8-3.5-3.5-7.1-5.1-10.7z"/></g><g class="st18"><path class="st1" d="M882.7 310.9c-1.3 7.3-2.8 14.6-4.3 21.8-1.6 7.3-3 14.5-4.6 21.8l-.2.9-.6-.7c-3.8-4.3-7.5-8.6-11.3-12.9-3.7-4.3-7.4-8.7-11.1-13 3.9 4.2 7.8 8.4 11.6 12.6 3.9 4.2 7.6 8.5 11.4 12.7l-.8.2c1.5-7.3 3.2-14.5 4.8-21.7 1.6-7.2 3.3-14.5 5.1-21.7z"/></g><path d="M797.3 369.6s-19.9 28.2-20.9 98c-1 69.7-2.8 47.4-2.8 47.4l15.3 3.4 8.4-60.9s13.2 29.1 8.4 60.9l10 2.5s28-15.7 12-56.8-10.5-57.4-10.5-57.4-.3-15.5 6.6 7.2c7 22.7 10.1 41.8 22.3 53.3s1.7 2.4 1.7 2.4 9.1 5.6 15.3 19.9c6.3 14.3 38.3 31.4 38.3 31.4s35.2-10.5 43.2-32.4l-51.9-81.6-8-10.4-9.1-20.9-48.1 13.8s-8.4-7.8-18.8 0l-11.4-19.8z" style="fill:#466eb6"/><g class="st18"><path class="st1" d="M802.7 343.7c1.9 1.7 3.7 3.4 5.5 5.1 1.8 1.7 3.6 3.5 5.3 5.3l-.8.1c1.5-2.7 3.1-5.4 4.6-8.1 1.6-2.7 3.2-5.3 4.9-7.9-1.3 2.8-2.8 5.6-4.2 8.3l-4.5 8.1-.3.6-.5-.5c-1.7-1.8-3.5-3.6-5.1-5.5-1.7-1.7-3.3-3.6-4.9-5.5z"/></g><path class="st1" d="M904.9 515.2c1.6-.8 3.3-1.5 4.9-2.3 1.6-.8 3.3-1.6 4.9-2.4 3.2-1.6 6.4-3.3 9.5-5.1 1.6-.9 3.1-1.8 4.6-2.8 1.5-1 3-2 4.4-3.1 1.4-1.1 2.8-2.3 3.9-3.6 1.2-1.3 2.1-2.9 2.3-4.7 0 1.8-.9 3.6-2 5-1.1 1.5-2.4 2.7-3.8 3.9-2.8 2.4-5.8 4.3-9 6.2-3.1 1.8-6.4 3.4-9.7 4.9-3.2 1.5-6.6 2.9-10 4z" style="opacity:.42"/><path class="st21" d="M811.3 394.2c.8-1.5 1.8-2.8 3.1-3.9.7-.6 1.4-1 2.2-1.3.8-.3 1.8-.4 2.7-.2.9.2 1.7.7 2.4 1.3.7.6 1.1 1.3 1.6 2.1.8 1.5 1.3 3.1 1.6 4.7-.7-1.5-1.4-3-2.3-4.3-.9-1.3-2-2.5-3.5-2.8-1.4-.3-2.9.3-4.2 1.2-1.3.8-2.5 1.9-3.6 3.2zM812.5 402c.1 5.1.5 10.1 1.1 15.1.6 5 1.3 10 2.2 15 1 5 2.1 9.9 3.4 14.7.3 1.2.7 2.4 1.1 3.6.4 1.2.7 2.4 1.1 3.6l2.4 7.2c1.5 4.9 2.6 9.8 3.3 14.9.7 5 1 10.1.6 15.2-.3 5.1-1.1 10.1-2.7 15-.8 2.4-1.9 4.7-3.2 6.9-1.3 2.1-3.1 4.1-5.3 5.3 2.2-1.3 3.8-3.3 5.1-5.5 1.3-2.2 2.2-4.5 3-6.9 1.5-4.8 2.2-9.8 2.4-14.9.4-10.1-1.1-20.2-4.2-29.7l-2.4-7.2c-.4-1.2-.8-2.4-1.1-3.6-.3-1.2-.7-2.4-1-3.7-1.3-4.9-2.4-9.9-3.3-14.8-1.7-9.9-2.7-20-2.5-30.2zM794 385.8c-.5.5-.9 1-1.3 1.6l-.6.8-.5.9c-.7 1.1-1.3 2.3-1.9 3.5-1.1 2.4-2.1 4.9-2.9 7.5l-.6 1.9c-.2.6-.4 1.3-.5 1.9l-1.1 3.9c-.6 2.6-1.2 5.2-1.7 7.8-2 10.5-3.1 21.2-4 31.9l-.5 8-.2 4c-.1 1.3-.1 2.7-.1 4l-.2 8-.1 4v12c0 2.7 0 5.4.1 8l.3 16.1-.8-16.1c-.1-2.7-.2-5.4-.2-8.1l-.1-8.1c-.1-10.7.3-21.5.9-32.2.9-10.7 2-21.4 4.2-32 .6-2.6 1.2-5.2 1.9-7.8l1.1-3.9c.2-.6.4-1.3.6-1.9l.7-1.9c.9-2.5 1.9-5 3.1-7.4.6-1.2 1.2-2.4 2-3.5l.5-.8.6-.8c.4-.3.8-.8 1.3-1.3zM796.9 454.3c-.6 4.9-1.4 9.8-2.1 14.7-.7 4.9-1.6 9.8-2.4 14.7-.9 4.9-1.7 9.8-2.6 14.6l-1.4 7.3c-.5 2.4-1 4.9-1.5 7.3.3-2.5.7-4.9 1-7.4l1.1-7.3c.7-4.9 1.6-9.8 2.4-14.7.9-4.9 1.7-9.8 2.6-14.6 1-4.9 1.9-9.7 2.9-14.6zM799.3 457.5c2.1 4.3 4 8.7 5.7 13.2 1.7 4.5 3.1 9.1 4.3 13.8.6 2.3 1.1 4.7 1.5 7.1.4 2.4.8 4.8.9 7.2.1 2.4.2 4.8-.1 7.2-.3 2.4-.8 4.8-1.9 7 .9-2.2 1.3-4.6 1.4-7 .1-2.4 0-4.8-.2-7.1-.5-4.7-1.4-9.4-2.6-14.1-1.1-4.6-2.6-9.2-4.1-13.7-.8-2.3-1.6-4.5-2.4-6.8-.8-2.4-1.7-4.6-2.5-6.8zM824.9 407.5c1 8.1 2.5 16.2 4.5 24.1 1 4 2.2 7.9 3.5 11.7 1.4 3.8 3 7.6 5.2 11 1.1 1.7 2.3 3.3 3.8 4.6.8.6 1.5 1.2 2.4 1.9.8.6 1.6 1.3 2.4 2 3.1 2.7 5.9 5.7 8.5 8.9 5.2 6.4 9.7 13.2 13.7 20.4l-.1-.1 15.6 13.3 15.5 13.4-15.9-13-15.8-13.1h-.1v-.1c-4-7.1-8.5-13.9-13.7-20.2-2.6-3.1-5.4-6.1-8.4-8.8-.7-.7-1.5-1.3-2.3-1.9-.8-.6-1.6-1.3-2.4-1.9-1.6-1.4-2.8-3.1-3.9-4.8-1.1-1.7-2.1-3.6-2.9-5.5-.9-1.9-1.6-3.8-2.3-5.7-1.3-3.9-2.4-7.8-3.4-11.8-.9-4-1.7-8-2.4-12.1-.6-4.2-1.2-8.2-1.5-12.3zM879.3 463c2.8 2.9 5.5 5.8 8.3 8.7 2.7 2.9 5.4 5.9 8.1 8.9 2.6 3 5.3 6 7.9 9.1l3.9 4.6c1.3 1.6 2.6 3.1 3.8 4.7-1.4-1.4-2.8-2.9-4.2-4.3l-4.1-4.4c-2.7-2.9-5.4-5.9-8.1-8.9-2.6-3-5.3-6-7.9-9.1-2.6-3.1-5.2-6.1-7.7-9.3zM879.3 398.4c5.1 7.1 10.1 14.3 15.1 21.5l14.9 21.6 14.7 21.8 7.3 10.9 7.2 11-7.6-10.7-7.5-10.8-14.9-21.6-14.7-21.8c-4.9-7.3-9.8-14.6-14.5-21.9zM812.5 398.4c1.7-.2 3.3-.3 4.9-.3h2.5c.8 0 1.6.1 2.5.2-1.6.5-3.3.7-4.9.7-.8 0-1.7 0-2.5-.2-.9 0-1.7-.1-2.5-.4zM843.2 396.8c2.7-1.1 5.5-2.1 8.2-3.1 2.8-1 5.5-1.9 8.3-2.9 2.8-.9 5.6-1.8 8.4-2.6l4.2-1.2c1.4-.4 2.8-.8 4.3-1.1-1.4.6-2.7 1.1-4.1 1.6l-4.1 1.5c-2.8 1-5.5 1.9-8.3 2.9-2.8.9-5.6 1.8-8.4 2.6-2.8.8-5.7 1.6-8.5 2.3zM794 379.3c1.4 1.5 2.5 3.2 3.7 4.8 1.2 1.7 2.3 3.3 3.3 5 2.1 3.4 4.2 6.9 6 10.5-2.5-3.2-4.7-6.6-6.9-10-1.1-1.7-2.1-3.4-3.2-5.2l-1.5-2.6c-.3-.8-.8-1.6-1.4-2.5z"/><g class="st22"><path d="M840.1 287.1c.9.6 1.7 1.3 2.4 2.1s1.3 1.7 1.8 2.6c1 1.8 1.9 3.7 2.6 5.6l-3.2-5.3c-.5-.9-1.1-1.7-1.8-2.5-.6-.8-1.2-1.6-1.8-2.5z"/></g><g class="st22"><path d="M838.3 287.1c.9.7 1.6 1.5 2.2 2.4.6.9 1.2 1.8 1.6 2.8.9 2 1.7 3.9 2.5 5.9-1.1-1.8-2.1-3.7-3.1-5.6-1-1.9-2.1-3.7-3.2-5.5z"/></g><g style="opacity:.17"><path d="M886.8 233.3c.7.7 1.2 1.6 1.5 2.5.3.9.4 2 .1 3-.3 1-1 1.9-1.9 2.4-.4.3-.9.4-1.4.6-.5.1-1 .2-1.4.3.4-.2.9-.4 1.3-.6.4-.3.8-.5 1.2-.8.8-.5 1.3-1.3 1.5-2.1.3-.8.2-1.8 0-2.7-.2-.8-.5-1.8-.9-2.6z"/></g><g class="st22"><path d="M752.9 309.8c1.7.1 3.4.3 5.1.7 1.7.4 3.3.8 5 1.4-1.7-.1-3.4-.3-5.1-.7-1.7-.4-3.3-.8-5-1.4z"/></g><g class="st22"><path d="M752.9 316.1c1.9 0 3.8.2 5.7.5 1.9.3 3.7.7 5.6 1.2-1.9 0-3.8-.2-5.7-.5-1.9-.3-3.7-.6-5.6-1.2z"/></g><g class="st22"><path d="M755.2 322.6c1.5-.3 3-.4 4.5-.4s3 .1 4.5.4c-1.5.3-3 .4-4.5.4s-3-.1-4.5-.4z"/></g></g><g><path class="st24" d="M168.1 550.1s-15.1 56.8 66.9 61c0 0-3.6-81.1-66.9-61z"/><path class="st9" d="M168.8 551.3c5.6 4.7 11.1 9.6 16.6 14.4 5.5 4.8 10.9 9.8 16.4 14.6l16.2 14.8 8 7.5c2.7 2.5 5.3 5 8 7.6-2.8-2.4-5.6-4.8-8.3-7.2l-8.3-7.3-16.4-14.6c-5.4-5-10.8-9.9-16.2-14.8-5.3-4.9-10.7-9.9-16-15z"/><path class="st9" d="M178.3 584.1c-1.8-4.2-3.1-8.6-3.9-13.1-.4-2.3-.7-4.6-.6-6.9 0-1.2.1-2.3.4-3.5.3-1.1.7-2.3 1.5-3.1-.6 1-.8 2.1-.9 3.2-.1 1.1-.1 2.2 0 3.3.1 2.2.5 4.5.8 6.7.4 2.2.9 4.4 1.3 6.7l1.4 6.7zM211.4 564.3c-1.3-.3-2.5-.7-3.8-.9-1.3-.3-2.5-.6-3.8-.9-2.5-.5-5-1-7.6-1.3-2.5-.3-5.1-.5-7.6-.4-1.3.1-2.5.2-3.8.5-1.2.3-2.4.7-3.6 1.4 1-.9 2.2-1.5 3.4-1.9 1.3-.4 2.6-.7 3.9-.8 2.6-.3 5.3-.2 7.9.2 2.6.4 5.1.9 7.6 1.6 2.6.6 5 1.4 7.4 2.5zM199.8 597.6c-1.9-1.8-3.7-3.8-5.2-5.9-1.6-2.1-3-4.4-4.2-6.8-1.1-2.4-2.1-4.9-2.4-7.6-.4-2.6-.2-5.4.9-7.8-.3 1.3-.5 2.6-.5 3.9 0 1.3.1 2.6.4 3.8.5 2.5 1.5 4.9 2.6 7.3 1.1 2.3 2.5 4.6 3.9 6.8.7 1.1 1.4 2.2 2.2 3.2.7 1 1.5 2 2.3 3.1zM201 580.4c2.1-.7 4.4-1 6.6-1 2.2 0 4.5.3 6.7.9 1.1.3 2.1.7 3.2 1.1 1 .5 2.1.9 3 1.6 1.9 1.2 3.6 2.8 5 4.4-1.8-1.4-3.5-2.7-5.5-3.7-.9-.6-2-.9-2.9-1.4-1-.3-2-.8-3.1-1-2.1-.6-4.2-.9-6.4-1.1-2.2 0-4.4 0-6.6.2zM214.4 592.6c.2 1.3.4 2.5.7 3.8.3 1.2.5 2.5.9 3.6.4 1.2.9 2.3 1.5 3.4s1.4 2 2.3 3c-1.2-.5-2.2-1.4-3.1-2.5-.8-1.1-1.4-2.3-1.8-3.5-.4-1.3-.7-2.6-.7-3.9-.1-1.3 0-2.6.2-3.9z"/><path class="st25" d="M170.9 523c-2.5 11-4.7 22-6.7 33.1-1.9 11.1-3.7 22.2-4.7 33.3-.3 2.8-.5 5.6-.7 8.4-.3 2.8-.2 5.6-.3 8.4l-.1 2.1v2.1l.1 4.2c0 1.4.2 2.8.3 4.2l.4 4.2c.7 5.6 1.3 11.2 1.5 16.9.1 2.8.1 5.7-.1 8.5-.1 1.4-.3 2.8-.7 4.2l-.4 1c-.1.3-.3.6-.5 1-.2.3-.4.6-.8.8-.3.2-.7.3-1 .1.3.1.7 0 1-.2.3-.2.5-.5.7-.8.1-.3.3-.6.4-1l.3-1c.2-1.4.4-2.8.4-4.2.1-2.8-.1-5.6-.4-8.4-.5-5.6-1.3-11.1-2.2-16.7-1.7-11.3-1.2-22.7-.2-33.9 1.1-11.3 2.9-22.4 5.2-33.5 2.4-11.1 5.2-22 8.5-32.8z"/><path class="st25" d="m168.8 566.4-1.3 21c-.4 7-.8 14-1.1 21-.3 7-.4 14-.3 21 .1 3.5.2 7 .6 10.4.3 3.5.9 6.9 2 10.3-1.6-3.1-2.4-6.6-3.1-10.1-.6-3.5-1-7-1.3-10.5-.3-3.5-.3-7-.4-10.6 0-3.5.1-7 .2-10.6.3-7 .8-14.1 1.6-21 .8-7 1.8-14 3.1-20.9zM149.5 483.8c.5 13.7.8 27.4.9 41 .2 13.7.3 27.4.3 41.1 0 13.7 0 27.4-.2 41.1-.1 13.7-.4 27.4-.8 41.1-.5-13.7-.8-27.4-.9-41-.2-13.7-.3-27.4-.3-41.1 0-13.7 0-27.4.2-41.1.1-13.8.4-27.4.8-41.1zM140.5 569.5c.8 5.9 1.4 11.8 1.8 17.8.5 5.9.9 11.9 1.2 17.8.3 5.9.6 11.9.7 17.8.2 5.9.2 11.9.1 17.8-.8-5.9-1.4-11.8-1.8-17.8-.5-5.9-.9-11.9-1.2-17.8-.3-5.9-.6-11.9-.7-17.8-.2-5.9-.3-11.9-.1-17.8zM120.4 492.9c3.7 12.5 6.8 25.3 9.5 38.1s5 25.7 6.8 38.7c.5 3.2.8 6.5 1.2 9.8.4 3.3.8 6.5 1 9.8l.8 9.8.4 9.8c.4 13.1 0 26.3-2.2 39.2.2-3.3.4-6.5.7-9.8.2-1.6.1-3.3.2-4.9l.1-4.9c0-1.6.1-3.3 0-4.9l-.2-4.9c-.1-3.3-.1-6.5-.4-9.8l-.6-9.8-.9-9.7c-.3-3.2-.7-6.5-1.1-9.7-.4-3.2-.7-6.5-1.2-9.7l-1.4-9.7-1.5-9.7c-1.1-6.4-2.2-12.9-3.4-19.3l-1.8-9.6c-.6-3.2-1.2-6.4-1.9-9.6-1.3-6.4-2.7-12.8-4.1-19.2z"/><g><path class="st24" d="M149.7 500.5s-4.9-13.6-19.2-4.5-24.1 57.9 3.8 83c0 0 24.8-10.1 27.9-38.7 3.2-28.6 5.3-38.4-12.5-39.8z"/><path class="st9" d="M135.8 575.1c-.3-6.4.1-12.8.4-19.2.4-6.4 1-12.8 1.8-19.2.4-3.2.9-6.4 1.5-9.5.6-3.2 1.2-6.3 2-9.4.8-3.1 1.7-6.2 3-9.2 1.3-2.9 2.7-5.9 5.2-8.1-2.2 2.3-3.6 5.3-4.6 8.3-1.1 3-1.9 6.1-2.6 9.2-1.4 6.2-2.5 12.5-3.3 18.9-.9 6.3-1.5 12.7-2.1 19.1-.3 3.2-.6 6.4-.8 9.6-.2 3.1-.5 6.3-.5 9.5z"/><path class="st9" d="M120.4 524.6c3.7-2.8 7.7-5.3 11.6-7.7 4-2.4 8-4.7 12.2-6.7-3.7 2.8-7.7 5.3-11.6 7.7-3.9 2.3-8 4.7-12.2 6.7zM163.9 524.6c-3.4-2.6-6.5-5.4-9.6-8.3-3.1-2.9-6.1-5.9-8.8-9.1 3.4 2.6 6.5 5.4 9.6 8.3 3.1 2.9 6.1 5.9 8.8 9.1zM122.2 554.2c2.4-2.4 4.9-4.5 7.5-6.5 2.6-2 5.3-3.9 8.2-5.6-2.4 2.4-4.9 4.5-7.5 6.5-2.6 2-5.3 4-8.2 5.6zM140.5 531.6c2.7 3.1 5.2 6.4 7.6 9.8 2.4 3.4 4.6 6.8 6.6 10.4-2.7-3.1-5.2-6.4-7.6-9.8-2.3-3.4-4.6-6.8-6.6-10.4z"/></g><g><path class="st24" d="M119.9 485.7s-25.1-18.8-62.8 23.5c0 0-9.9 24.1 0 31.4 0 0 35.6-6.3 52.3-22.5.1.1 23.6-23.5 10.5-32.4z"/><path class="st9" d="M57.2 540.7c2.9-6.5 6.8-12.6 11-18.4 4.3-5.7 9.1-11.1 14.4-15.9 5.4-4.8 11.2-9.1 17.4-12.6 6.2-3.5 13-6.2 19.9-8-3.4 1.2-6.7 2.3-10 3.9-1.6.7-3.2 1.5-4.8 2.3-1.6.9-3.1 1.7-4.7 2.6-6.1 3.6-11.9 7.9-17.1 12.7-5.3 4.7-10.1 10-14.5 15.6-2.2 2.8-4.3 5.7-6.2 8.7-1.9 2.8-3.8 5.9-5.4 9.1z"/><path class="st9" d="M103.4 519.7c-.1-2.3-.2-4.6-.3-6.8l-.2-6.8c-.1-2.3 0-4.6-.1-6.8v-6.8l.5.6c-4.2-.3-8.5-.6-12.7-1-4.2-.4-8.5-.8-12.7-1.3 4.3.1 8.5.2 12.8.4 4.3.2 8.5.5 12.7.7h.5v7.3c0 2.3 0 4.6-.1 6.8l-.2 6.8c0 2.4-.1 4.7-.2 6.9zM57.7 514.8c3.5-1.2 7-2.2 10.5-3.3 3.5-1.1 7-2 10.6-3l.8-.2-.1.8c-.3 4.5-.7 9-1.1 13.4-.4 4.5-.9 8.9-1.5 13.4.1-4.5.3-9 .5-13.5l.9-13.5.7.6c-3.5.9-7.1 1.9-10.7 2.7-3.5 1-7 1.8-10.6 2.6z"/></g><g><path class="st25" d="m116.6 462.3-9.5 16-17.9-28.6z"/><path class="st24" d="m149.5 487.7-61.2-35.6s4.7-23 47.1-12.6c0 .1 35 20.5 14.1 48.2z"/><path class="st9" d="M149 483c.2-3-.2-6-.9-8.8-.7-2.9-1.8-5.6-3.2-8.2-2.8-5.2-6.8-9.6-11.6-13.1-4.7-3.6-10-6.2-15.5-8.4l-4.2-1.5c-1.4-.4-2.8-.9-4.3-1.3-1.4-.4-2.9-.8-4.3-1.2l-4.3-1 4.4.7c1.5.3 2.9.6 4.4.9 1.5.3 2.9.8 4.3 1.2 1.4.4 2.8.9 4.3 1.4 5.6 2 11 4.8 15.9 8.3 4.8 3.6 9 8.2 11.6 13.6 2.8 5.3 4.2 11.4 3.4 17.4z"/><path class="st9" d="M122.2 468.3c3.2-1.2 6.5-2 9.8-2.7 3.3-.7 6.7-1.3 10.1-1.6-3.2 1.2-6.5 2-9.8 2.7-3.3.7-6.6 1.3-10.1 1.6zM132.2 439.4c.4 1.7.6 3.4.6 5.2 0 1.7-.1 3.4-.6 5.2-.5-1.7-.6-3.4-.6-5.2.1-1.8.2-3.5.6-5.2zM95.1 449.7c4-1.3 8-2.3 12-3.1 4.1-.8 8.1-1.6 12.3-2-4 1.3-8 2.3-12 3.1-4.1.8-8.1 1.5-12.3 2z"/></g><path d="M165.2 528.4s4.2-55.4 53.3-32.4l26.1 13.4s-22 15.3-45.5 12.7c0 0-8.9-1.6-18.8 6.3-9.9 7.8-15.1 0-15.1 0z" style="fill:#82c4b2"/><g><path class="st9" d="M167.9 526.2c1.8-7.4 5.4-14.5 10.8-20.1 1.3-1.4 2.8-2.6 4.4-3.8 1.6-1.1 3.3-2.1 5.1-2.9 3.5-1.6 7.4-2.4 11.3-2.5 3.9-.1 7.8.5 11.5 1.4 3.7.9 7.4 1.8 11.1 2.9 3.7 1.1 7.3 2.4 10.8 3.9 1.8.7 3.5 1.7 5.1 2.6l1.2.8c.4.3.8.6 1.1.9.3.3.7.7 1 1.1.3.4.6.8.6 1.3-.1-.5-.4-.9-.7-1.2-.3-.4-.7-.7-1-1-.4-.3-.8-.6-1.2-.8l-1.2-.7c-1.7-.9-3.4-1.7-5.2-2.4-3.5-1.4-7.2-2.6-10.8-3.5-3.7-1-7.4-1.9-11.1-2.8-3.7-.9-7.4-1.4-11.2-1.3-3.7.1-7.5.8-10.9 2.3-1.7.7-3.4 1.7-4.9 2.7-1.5 1.1-3 2.3-4.3 3.6-2.7 2.6-5 5.7-6.9 9-1.9 3.3-3.4 6.8-4.6 10.5z"/><path class="st9" d="M178.9 511.8c3.5 1.5 6.9 3.3 10.2 5.1 3.3 1.9 6.6 3.8 9.7 6.1-3.5-1.5-6.9-3.3-10.2-5.1-3.3-1.8-6.6-3.8-9.7-6.1zM193 491.5c-1.1 2-2.4 3.9-3.9 5.7-1.4 1.8-3 3.5-4.8 4.9 1.1-2.1 2.4-3.9 3.9-5.7 1.5-1.7 3-3.4 4.8-4.9zM202 497.5c2.3 1.5 4.6 3 6.8 4.6 2.2 1.6 4.4 3.2 6.6 4.9 2.2 1.7 4.3 3.3 6.5 5.1l3.2 2.6c1 .9 2.1 1.8 3.1 2.7-1.2-.7-2.3-1.5-3.4-2.3l-3.4-2.4c-2.2-1.6-4.4-3.2-6.6-4.9-2.2-1.7-4.3-3.3-6.5-5.1-2.2-1.6-4.3-3.3-6.3-5.2zM208.2 496.8c1.9-.3 3.7-.3 5.5-.2 1.8.1 3.6.3 5.5.9-1.9.3-3.7.3-5.5.2-1.9-.1-3.7-.3-5.5-.9z"/></g><g><path class="st27" d="M186.1 727.7h-60.2l-16.6-103.5h92z"/><path class="st28" d="M94.8 622.8h118.1v16.8H94.8z"/><path class="st27" d="M94.8 620.5h118.1v16.8H94.8z"/><path class="st28" d="M191.4 728.1h-70.6l-11.7-19.6h92.2z"/></g></g><path class="st27" d="M52.8 727.7h915.7v11.1H52.8z"/></svg>