<svg xmlns="http://www.w3.org/2000/svg" width="578" height="393.144" viewBox="0 0 578 393.144"><defs><style>.a,.b{fill:#d5b5f4;}.a{opacity:0.84;}.b{opacity:0.62;}.ag,.c,.m,.p{fill:#fff;}.d{fill:#434488;}.e{fill:#e9f1ff;}.f{fill:#413f82;}.g{fill:#313160;}.h{fill:#8b22e2;}.i{fill:#521f84;}.j{fill:#b9b5f2;}.k{fill:#fa0;}.l{fill:#ffc954;}.m{opacity:0.28;}.n{fill:#ff4f5b;}.o{fill:#fffffc;}.p,.q,.z{opacity:0.48;}.r{fill:#472af6;}.s{fill:#ffb1d2;}.t{fill:#220b61;}.u{fill:#1c065e;}.v{fill:#1b0262;}.w{fill:#5b5b5b;}.x,.z{fill:none;}.y{fill:#96d9c9;}.z{stroke:#fff;stroke-miterlimit:10;}.aa{fill:#519a8a;}.ab{fill:#fcb3d6;}.ac{fill:#16016b;}.ad{fill:#1b006f;}.ae{fill:#a8c1ff;}.af{fill:#466eb6;}.ag{opacity:0.32;}</style></defs><g transform="translate(0 -19.996)"><g transform="translate(0 19.996)"><ellipse class="a" cx="289" cy="22.705" rx="289" ry="22.705" transform="translate(0 347.734)"/><path class="b" d="M8.837,371.88S2.03,283.341,25.708,218.944A83.205,83.205,0,0,1,79.8,168.318c24.524-7.484,64.6-30.6,107.448-100.194,38.494-62.51,91.786-71.59,131.8-67.177a127.372,127.372,0,0,1,76.546,37.345c23.877,24.18,63.127,61.356,86.128,69.069,34.722,11.642,93.412,73.808,94.56,133.1s-21.9,128.6-21.9,128.6Z" transform="translate(-3.136 0.004)"/><rect class="b" width="70.689" height="23.871" transform="translate(350.301 95.427)"/><path class="c" d="M696.1,165.226H690.28a22.046,22.046,0,0,1-22.04-22.04V116.16h45.337v31.6A17.464,17.464,0,0,1,696.1,165.226Z" transform="translate(-264.297 -45.94)"/><path class="b" d="M621.989,144.9H551.3V63.29h53.014a17.657,17.657,0,0,1,17.657,17.657Z" transform="translate(-218.045 -25.03)"/><rect class="d" width="313.536" height="212.901" rx="23.42" transform="translate(145.005 132.669)"/><rect class="e" width="294.997" height="182.132" transform="translate(154.272 148.392)"/><path class="f" d="M186,571.67H585.21v7.4a14.139,14.139,0,0,1-14.151,14.145H200.151A14.139,14.139,0,0,1,186,579.081Z" transform="translate(-73.565 -226.1)"/><path class="g" d="M361,571.662H527.458v5.32a5.44,5.44,0,0,1-5.44,5.44H368.858A7.858,7.858,0,0,1,361,574.564v-2.9Z" transform="translate(-142.78 -226.092)"/><rect class="h" width="153.764" height="28.417" rx="14.209" transform="translate(225.928 211.041)"/><rect class="i" width="140.09" height="18.848" rx="9.424" transform="translate(232.021 216.034)"/><path class="c" d="M537.972,63.516s-92.172-1.251-120.033,0c-23.43,1.046-17.748,44.436-15.342,58.212h-1.306V259.782H520.98V94.418C515.89,67.536,537.972,63.516,537.972,63.516Z" transform="translate(-158.287 -24.899)"/><rect class="h" width="124.331" height="44.079" rx="14.45" transform="translate(403.943 197.876)"/><rect class="j" width="113.106" height="38.572" rx="14.45" transform="translate(409.765 200.632)"/><path class="c" d="M794.965,349.642H770.441a1.511,1.511,0,0,1,0-3.022h24.524a1.511,1.511,0,0,1,0,3.022Z" transform="translate(-304.121 -137.09)"/><path class="c" d="M839.278,349.642H814.741a1.511,1.511,0,0,1,0-3.022h24.536a1.511,1.511,0,0,1,0,3.022Z" transform="translate(-321.642 -137.09)"/><path class="c" d="M787.488,364.323H770.441a1.511,1.511,0,0,1,0-3.022h17.047a1.511,1.511,0,1,1,0,3.022Z" transform="translate(-304.121 -142.896)"/><path class="c" d="M837.609,364.323h-26.6a1.511,1.511,0,0,1,0-3.022h26.6a1.511,1.511,0,0,1,0,3.022Z" transform="translate(-320.167 -142.896)"/><path class="c" d="M806.2,379.452H770.441a1.511,1.511,0,0,1,0-3.022H806.2a1.511,1.511,0,0,1,0,3.022Z" transform="translate(-304.121 -148.88)"/><path class="k" d="M689.888,314.6s17.47-.828,20.377-7.9c0,0,15.209,11.231,20.909,7.9,0,0,5.2,32.872-20.643,37.962C710.531,352.563,685.318,348.283,689.888,314.6Z" transform="translate(-272.639 -121.301)"/><path class="l" d="M712.246,351.572h-.054c-1.209-.224-21.913-4.576-18.02-33.247,0,0,15.294-.725,17.845-6.915l.175.127c1.6,1.155,13.48,9.5,18.135,6.788C730.326,318.331,734.884,347.117,712.246,351.572Z" transform="translate(-274.36 -123.164)"/><path class="m" d="M712.191,311.535v40.017c-1.209-.224-21.913-4.576-18.02-33.247,0,0,15.294-.725,17.845-6.915Z" transform="translate(-274.36 -123.156)"/><rect class="n" width="64.04" height="69.861" rx="14.79" transform="translate(163.599 96.001)"/><path class="o" d="M324.242,204.514c-.411.411-.834.792-1.269,1.155a18.491,18.491,0,0,1-23.605,0c-.435-.363-.858-.744-1.269-1.155a18.485,18.485,0,1,1,26.144,0Z" transform="translate(-115.76 -68.405)"/><circle class="h" cx="7.308" cy="7.308" r="7.308" transform="translate(188.31 109.856)"/><path class="h" d="M327.345,219.906a18.491,18.491,0,0,1-23.605,0,11.836,11.836,0,0,1,23.605,0Z" transform="translate(-120.133 -82.642)"/><rect class="o" width="26.199" height="4.987" rx="2.494" transform="translate(182.308 144.01)"/><rect class="o" width="44.629" height="4.576" rx="2.288" transform="translate(173.579 152.781)"/><rect class="k" width="121.69" height="31.603" rx="15.801" transform="translate(241.922 268.153)"/><rect class="h" width="108.53" height="61.96" rx="7.45" transform="translate(91.659 179.995)"/><rect class="p" width="36.596" height="6.099" rx="3.05" transform="translate(94.433 185.538)"/><rect class="p" width="21.066" height="6.099" rx="3.05" transform="translate(138.234 185.538)"/><rect class="p" width="20.788" height="10.319" rx="4.41" transform="translate(95.957 218.331)"/><rect class="p" width="19.96" height="10.319" rx="4.41" transform="translate(122.844 218.331)"/><rect class="p" width="20.516" height="9.484" rx="4.41" transform="translate(148.765 218.331)"/><rect class="p" width="19.404" height="9.484" rx="4.41" transform="translate(174.407 218.331)"/><g class="q" transform="translate(95.14 232.404)"><path class="c" d="M193.272,387.482H158.9a1.511,1.511,0,1,1,0-3.022h34.371a1.511,1.511,0,1,1,0,3.022Z" transform="translate(-157.39 -384.46)"/></g><g class="q" transform="translate(133.949 232.404)"><path class="c" d="M245.141,387.482H223.1a1.511,1.511,0,1,1,0-3.022h22.04a1.511,1.511,0,1,1,0,3.022Z" transform="translate(-221.59 -384.46)"/></g><rect class="k" width="31.603" height="17.258" rx="5.1" transform="translate(94.433 196.28)"/><g class="q" transform="translate(94.566 201.502)"><path class="r" d="M187.263,334.174a.3.3,0,0,1-.3-.23H156.742a.308.308,0,0,1-.3-.3.3.3,0,0,1,.3-.3h30.829v.532a.3.3,0,0,1-.308.3Z" transform="translate(-156.44 -333.34)"/></g><g class="q" transform="translate(94.542 207.185)"><path class="r" d="M187.247,343.345H156.7a.3.3,0,0,1,0-.6h30.545a.3.3,0,0,1,0,.6Z" transform="translate(-156.4 -342.74)"/></g><g class="q" transform="translate(104.153 195.977)"><path class="r" d="M172.6,341.881a.308.308,0,0,1-.3-.3V324.5a.3.3,0,0,1,.6,0v17.107A.3.3,0,0,1,172.6,341.881Z" transform="translate(-172.3 -324.2)"/></g><g class="q" transform="translate(114.182 195.977)"><path class="r" d="M189.192,342.063a.3.3,0,0,1-.3-.3V324.5a.3.3,0,0,1,.6,0V341.76A.3.3,0,0,1,189.192,342.063Z" transform="translate(-188.89 -324.2)"/></g><ellipse class="s" cx="9.98" cy="13.794" rx="9.98" ry="13.794" transform="translate(54.888 197.876)"/><path class="s" d="M92.4,363.11l-3.6,10.953,15.523,3.464L102.1,366.163Z" transform="translate(-35.121 -143.612)"/><path class="s" d="M45.285,561,33.8,571.53l2.079,6.692s17.742-9.46,19.126-11.957S45.285,561,45.285,561Z" transform="translate(-13.368 -221.88)"/><path class="t" d="M31.341,575.149l4.02,6.589,2.908,12.8s0,3.881-2.908.689-9.841-16.079-9.841-16.079S26.209,574.055,31.341,575.149Z" transform="translate(-10.093 -227.415)"/><path class="s" d="M133.75,568.5s4.292,16.635,6.51,20.262,9.291-.7,9.291-.7-3.887-3.881-3.887-4.437S142.9,567,142.9,567Z" transform="translate(-52.9 -224.253)"/><path class="u" d="M142.547,598.729s2.877,2.261,7.447-1.209l11.485.973s4.437.774.7,3.772l-17.6,4.522s-4.715.713-3.022-4.63S142.547,598.729,142.547,598.729Z" transform="translate(-55.84 -236.324)"/><path class="h" d="M59.9,445.43s.55,1.106-2.914,2.914c0,0-17.464,21.067-22.868,41.577L28,509.742s18.135,14.7,43.106,16.636S111.444,516.1,111.444,516.1s-4.993-36.59-13.583-47.821L83.613,445.43Z" transform="translate(-11.074 -176.17)"/><path class="s" d="M175.25,394.523l5.44-2.5s.52-2.5,5.646-2.418,5.821,2.454,5.821,2.454,1.155,5.326-6.371,4.679c-2.781-.248-8.874,2.775-8.874,2.775Z" transform="translate(-69.313 -154.092)"/><path class="s" d="M141.31,322.869s1.62-5.864.508-7.9,1.813-8.179,4.437-8.04.737,14,.737,14l.048,4.437Z" transform="translate(-55.89 -121.391)"/><path class="v" d="M93.592,339.488s-3.693-2.914-7.133-6.111c0,0-6.649,6.51-8.463,6.232s-1.245,5.35-1.245,5.35.139,10.73-4.3,10.18c0,0-6.649-1.668-6.649,5.543l-1.251,17.6s-16.769,3.325-17.047-8.463c0,0-1.251-3.367,5.96-11.939,0,0-.834-7.6.828-12.319,0,0,.834-4.836,8.463-5.4,0,0,2.853-3.47,4.836-11.352a8.264,8.264,0,0,1,1.511-3.137c2.418-3.083,8.505-8.693,17.766-3.077,6.788,4.123,6.323,8,6.323,8S95.031,335.879,93.592,339.488Z" transform="translate(-18.756 -126.639)"/><ellipse class="s" cx="2.877" cy="3.494" rx="2.877" ry="3.494" transform="translate(54.784 212.283) rotate(-10.94)"/><path class="k" d="M85.282,357.226l9.672,4.558v-5.821l4.328-1.318s3.373-1.62,5.386-6.528,9.968-18.056,9.968-18.056l7.236,2.237-4.836,17.742s-5.555,14.441-7.635,15.65c-1.813,1.07-4.836,3.76-.973,3.959,0,0,10.953,3.663,16.218,2.835a86.764,86.764,0,0,0,11.364-2.835s5.827,4.775,4.576,6.438-11.921,12.477-22.451,11.225-13.19-.677-13.19-.677l-2.478,15.384H77.242s-4.141-20.71-2.605-29.807a17.179,17.179,0,0,0,.26-3.337C74.812,365.3,75.688,357.226,85.282,357.226Z" transform="translate(-29.385 -130.54)"/><rect class="w" width="54.059" height="15.801" rx="7.901" transform="translate(275.87 52.339)"/><rect class="w" width="29.517" height="4.322" rx="2.161" transform="translate(288.142 76.706)"/><rect class="w" width="29.517" height="4.322" rx="2.161" transform="translate(254.46 115.381)"/><rect class="w" width="17.53" height="4.322" rx="2.161" transform="translate(255.288 124.025)"/><rect class="w" width="16.007" height="4.322" rx="2.161" transform="translate(255.288 149.668)"/><rect class="w" width="16.007" height="4.322" rx="2.161" transform="translate(256.049 166.714)"/><rect class="w" width="18.884" height="4.322" rx="2.161" transform="translate(275.973 166.714)"/><rect class="w" width="21.762" height="4.322" rx="2.161" transform="translate(256.049 196.794)"/><rect class="w" width="21" height="4.322" rx="2.161" transform="translate(274.97 149.668)"/><rect class="w" width="17.53" height="4.322" rx="2.161" transform="translate(277.327 124.025)"/><rect class="w" width="10.258" height="4.322" rx="2.161" transform="translate(339.493 115.381)"/><rect class="w" width="10.258" height="4.322" rx="2.161" transform="translate(339.493 124.025)"/><rect class="w" width="10.258" height="4.322" rx="2.161" transform="translate(339.493 132.669)"/><rect class="w" width="10.258" height="4.322" rx="2.161" transform="translate(339.493 141.314)"/><rect class="w" width="10.258" height="4.322" rx="2.161" transform="translate(339.493 149.958)"/><rect class="w" width="10.258" height="4.322" rx="2.161" transform="translate(340.049 158.602)"/><rect class="w" width="10.258" height="4.322" rx="2.161" transform="translate(339.493 167.246)"/><rect class="w" width="7.278" height="4.322" rx="2.161" transform="translate(281.625 196.794)"/><rect class="w" width="26.265" height="4.322" rx="2.161" transform="translate(255.983 140.709)"/><rect class="w" width="27.994" height="4.322" rx="2.161" transform="translate(255.983 157.955)"/><line class="w" x2="93.702" transform="translate(256.049 180.551)"/><line class="w" x2="93.702" transform="translate(256.049 107.365)"/><path class="w" d="M566.819,308.081v1.143a6.721,6.721,0,0,1,1.94.465,3.825,3.825,0,0,1,1.414,1.058,4.381,4.381,0,0,1,.737,1.112,2.534,2.534,0,0,1,.26,1.052,1.209,1.209,0,0,1-.387.913,1.269,1.269,0,0,1-.937.387,1.312,1.312,0,0,1-1.342-1.118,2.418,2.418,0,0,0-1.687-1.759v4.4c.877.242,1.572.459,2.092.659a4.286,4.286,0,0,1,1.39.858,3.924,3.924,0,0,1,1.016,1.39,4.4,4.4,0,0,1,.351,1.777,4.745,4.745,0,0,1-.562,2.261,4.5,4.5,0,0,1-1.668,1.717,5.924,5.924,0,0,1-2.617.8v2.636a2.575,2.575,0,0,1-.121.913.526.526,0,0,1-.538.284.6.6,0,0,1-.532-.236,1.311,1.311,0,0,1-.151-.719v-2.865a6.715,6.715,0,0,1-2.17-.6,5.09,5.09,0,0,1-1.542-1.106,4.575,4.575,0,0,1-.919-1.378,3.628,3.628,0,0,1-.3-1.4,1.264,1.264,0,0,1,.4-.913,1.324,1.324,0,0,1,.991-.411,1.4,1.4,0,0,1,.8.224,1.143,1.143,0,0,1,.453.6,13.244,13.244,0,0,0,.5,1.33,2.619,2.619,0,0,0,.641.84,2.95,2.95,0,0,0,1.143.6v-4.927a12.891,12.891,0,0,1-2.376-.87,4.292,4.292,0,0,1-.979-6.649,5.217,5.217,0,0,1,3.355-1.354v-1.118c0-.6.218-.895.665-.895S566.819,307.5,566.819,308.081Zm-1.342,7.254V311.3a3.626,3.626,0,0,0-1.39.7,1.656,1.656,0,0,0-.5,1.318,1.614,1.614,0,0,0,.465,1.263,4.364,4.364,0,0,0,1.421.768Zm1.342,3.143v4.636a2.86,2.86,0,0,0,1.65-.858,2.152,2.152,0,0,0,.6-1.5,1.813,1.813,0,0,0-.568-1.427,4.511,4.511,0,0,0-1.687-.84Z" transform="translate(-221.704 -121.491)"/><rect class="w" width="8.523" height="4.322" rx="2.161" transform="translate(281.625 132.972)"/><rect class="w" width="22.801" height="4.322" rx="2.161" transform="translate(255.983 132.669)"/><path class="x" d="M601.45,144.59V89.709s-2.914-23.575,21.623-26.749c0,0,19.543,3.022,18.739,22.179v38.252s5.8,22.457,22.433,21.211c0,0,21.205,4.57,22.868-19.948V98.861" transform="translate(-237.838 -24.899)"/><path class="y" d="M891.219,546.114s22.173-16.817,16.63-60.618c0,0,3.325-23.841,11.643-37.146,0,0-21.623,18.854-26.06,31.6s-10.808,7.193-14.272,22.173-3.47,43.989-3.47,43.989Z" transform="translate(-346.345 -177.325)"/><path class="z" d="M889.806,545.5s-4.479-26.4,8.826-51.454,22.257-39.781,22.257-39.781" transform="translate(-351.641 -179.663)"/><path class="aa" d="M862.121,538.737s4.437-23.75,0-36.965,1.971-25.388,1.971-25.388,5.99-16.63-3.536-23.841c0,0-5.44-15.644,0-21.683,0,0-21.157,4.588-16.732,27.553s-9.6,22.971-9.6,22.971-10.276,17.325-2.841,29.934-1.626,27.033-1.626,27.033Z" transform="translate(-327.753 -170.408)"/><path class="z" d="M856.783,536.98s-7.417-14.55.647-39.5,3.089-44.339,3.089-44.339-2.019-5.319,6.474-20.408" transform="translate(-337.636 -171.147)"/><rect class="k" width="51.962" height="5.368" rx="2.684" transform="translate(500.904 363.421)"/><ellipse class="ab" cx="8.336" cy="10.397" rx="8.336" ry="10.397" transform="translate(472.184 266.485)"/><path class="ac" d="M791.188,441.627s-11.165,1.475-13.534-1.481-.677-10.349-.677-10.349a3.385,3.385,0,0,1,4.739,0c2.539,2.219,2.666-3.742,6.238,1.85,0,0,7.677-.683,9.853,5.332a9.738,9.738,0,0,0,.659,1.421,6.649,6.649,0,0,1,.508,5.44s.073,6.746-1.862,6.649C797.112,450.507,792.035,449.4,791.188,441.627Z" transform="translate(-307.072 -169.605)"/><ellipse class="ab" cx="2.944" cy="2.176" rx="2.944" ry="2.176" transform="matrix(0.285, -0.958, 0.958, 0.285, 483.286, 279.658)"/><path class="ab" d="M788.62,470.007v9.067s4.993,5.725,8.6,2.418,1.662-5.634,1.662-5.634a60.185,60.185,0,0,1-2.5-6.565C796.1,467.813,788.62,470.007,788.62,470.007Z" transform="translate(-311.908 -185.406)"/><path class="n" d="M772.958,474.384,760.82,480.32a119.508,119.508,0,0,0-9.521,7.29c-2.5,2.394-4.231,7.29-3.972,9.581s-.187,33.543-.187,33.543l.405,7.345,57.9,1.813-1.856-40.64a19.179,19.179,0,0,0-.762-4.534c-.961-3.264-3.022-8.62-6.649-10.881-5.356-3.331-15.39-9.478-15.39-9.478L778.1,482Z" transform="translate(-295.502 -187.613)"/><path class="ad" d="M754.08,606.854s-5.2-1.711-8.529.7-9.793,7.018-.556,9.515c0,0,10.669-1.142,12.362-4.129Z" transform="translate(-292.77 -239.782)"/><path class="ad" d="M814.92,613.092l5.821,3.512s5.543,1.94,9.7-.834c0,0,3.693-3.79-2.678-6.559s-9.333-3.881-9.333-3.881Z" transform="translate(-322.31 -239.413)"/><path class="ad" d="M757.855,530.48,760,551.51s40.894.091,40.64,0,1.142-15.717,1.614-21.1a1.669,1.669,0,0,0-1.668-1.814H759.559a1.711,1.711,0,0,0-1.7,1.88Z" transform="translate(-299.737 -209.065)"/><ellipse class="ae" cx="2.914" cy="3.186" rx="2.914" ry="3.186" transform="translate(477.171 330.156)"/><path class="af" d="M783.243,585.291c-.369.278-3.627,8.777-3.627,8.777l-36.6-9.146s-26.241-14.048-19.4-24.784,21.345-3.022,21.345-3.022L765.2,571.9Z" transform="translate(-285.749 -219.282)"/><path class="af" d="M761.41,585.187c-.091-.278,24.953-18.388,24.953-18.388s13.952-12.658,23.285-11.086,14.048,6.927,9.611,15.155-33.247,18.479-33.247,18.479l-20.976,4.624Z" transform="translate(-301.146 -219.735)"/><path class="c" d="M439.55,464.733h-2.521v3.839a1.778,1.778,0,0,1-.387,1.245,1.276,1.276,0,0,1-.979.429,1.257,1.257,0,0,1-1-.423,1.771,1.771,0,0,1-.381-1.209V458.156a1.7,1.7,0,0,1,.417-1.294,1.892,1.892,0,0,1,1.324-.387h3.524a9.127,9.127,0,0,1,2.418.242,3.476,3.476,0,0,1,2.358,2.079,4.589,4.589,0,0,1,.314,1.747,3.863,3.863,0,0,1-1.275,3.143A5.977,5.977,0,0,1,439.55,464.733Zm-.671-6.22h-1.85v4.147h1.85a5.4,5.4,0,0,0,1.626-.205,1.885,1.885,0,0,0,1-.665,2.3,2.3,0,0,0-.187-2.666,3.509,3.509,0,0,0-2.448-.61Z" transform="translate(-171.761 -180.536)"/><path class="c" d="M460.464,468.319l-.647-1.7H454.3l-.647,1.741a6.006,6.006,0,0,1-.647,1.372,1.034,1.034,0,0,1-.877.357,1.294,1.294,0,0,1-.919-.381,1.16,1.16,0,0,1-.4-.858,1.766,1.766,0,0,1,.1-.574c.06-.2.163-.471.3-.822l3.47-8.807c.1-.254.218-.562.357-.913a4.433,4.433,0,0,1,.441-.883,1.814,1.814,0,0,1,.6-.574,2.249,2.249,0,0,1,1.9,0,1.814,1.814,0,0,1,.6.562,3.927,3.927,0,0,1,.4.737c.109.26.242.6.411,1.046l3.542,8.753a4.437,4.437,0,0,1,.417,1.457,1.209,1.209,0,0,1-.393.864,1.36,1.36,0,0,1-1.505.278,1.155,1.155,0,0,1-.387-.314,2.819,2.819,0,0,1-.339-.6Q460.6,468.627,460.464,468.319Zm-5.44-3.766h4.05l-2.043-5.6Z" transform="translate(-178.301 -180.375)"/><path class="c" d="M475.318,468.408v-4.3l-3.313-5.132a11.9,11.9,0,0,1-.6-1.082,1.667,1.667,0,0,1-.181-.677,1.088,1.088,0,0,1,.363-.816,1.281,1.281,0,0,1,.907-.338,1.094,1.094,0,0,1,.852.314,9.909,9.909,0,0,1,.876,1.275l2.533,4.117,2.563-4.117.393-.641a3.906,3.906,0,0,1,.345-.484,1.439,1.439,0,0,1,.423-.351,1.34,1.34,0,0,1,1.427.218,1.076,1.076,0,0,1,.345.786,1.577,1.577,0,0,1-.175.719,8.5,8.5,0,0,1-.6,1l-3.4,5.211v4.3a1.777,1.777,0,0,1-.387,1.257,1.4,1.4,0,0,1-1.983,0,1.813,1.813,0,0,1-.381-1.257Z" transform="translate(-186.373 -180.373)"/><path class="c" d="M504.02,457.683l5.283,7.991v-8.064a1.77,1.77,0,0,1,.338-1.209,1.124,1.124,0,0,1,.913-.393,1.154,1.154,0,0,1,.931.393,1.734,1.734,0,0,1,.345,1.209v10.663c0,1.209-.5,1.814-1.481,1.814a1.915,1.915,0,0,1-.665-.109,1.682,1.682,0,0,1-.556-.338,3.22,3.22,0,0,1-.484-.538c-.145-.206-.3-.417-.441-.635l-5.156-7.9v7.949a1.692,1.692,0,0,1-.357,1.173,1.209,1.209,0,0,1-.925.4,1.173,1.173,0,0,1-.937-.405,1.717,1.717,0,0,1-.351-1.167V458.028a2.986,2.986,0,0,1,.145-1.046,1.523,1.523,0,0,1,.6-.683,1.578,1.578,0,0,1,.877-.26,1.548,1.548,0,0,1,.635.115,1.7,1.7,0,0,1,.466.326,3.4,3.4,0,0,1,.405.526C503.729,457.212,503.874,457.448,504.02,457.683Z" transform="translate(-197.943 -180.354)"/><path class="c" d="M529.787,456.058a7.253,7.253,0,0,1,3.627.852,5.549,5.549,0,0,1,2.291,2.418,8.347,8.347,0,0,1,.774,3.706,9.067,9.067,0,0,1-.423,2.859,6.279,6.279,0,0,1-1.275,2.224,5.62,5.62,0,0,1-2.092,1.445,7.584,7.584,0,0,1-2.841.5,7.451,7.451,0,0,1-2.853-.514,5.725,5.725,0,0,1-2.11-1.439,6.219,6.219,0,0,1-1.276-2.249,9.1,9.1,0,0,1-.429-2.835,8.691,8.691,0,0,1,.453-2.871,6.081,6.081,0,0,1,1.3-2.219,5.555,5.555,0,0,1,2.067-1.4A7.429,7.429,0,0,1,529.787,456.058Zm3.9,6.976a6.347,6.347,0,0,0-.478-2.581,3.627,3.627,0,0,0-1.372-1.656,3.826,3.826,0,0,0-2.049-.556,3.731,3.731,0,0,0-1.523.308,3.318,3.318,0,0,0-1.209.9,4.319,4.319,0,0,0-.8,1.511,6.909,6.909,0,0,0-.29,2.073,7.013,7.013,0,0,0,.29,2.085,4.31,4.31,0,0,0,.822,1.554,3.487,3.487,0,0,0,1.209.919,3.627,3.627,0,0,0,4.836-1.85,6.256,6.256,0,0,0,.562-2.708Z" transform="translate(-206.923 -180.373)"/><path class="c" d="M558.278,467.712l-2.194-8.13-2.237,8.13c-.175.6-.308,1.058-.411,1.33a1.76,1.76,0,0,1-.532.719,1.53,1.53,0,0,1-1.009.32,1.675,1.675,0,0,1-.84-.193,1.452,1.452,0,0,1-.532-.532,3.758,3.758,0,0,1-.332-.828c-.085-.314-.163-.6-.23-.883l-2.255-9.128a5.215,5.215,0,0,1-.206-1.209,1.209,1.209,0,0,1,.369-.889,1.251,1.251,0,0,1,.919-.357,1.028,1.028,0,0,1,1,.478,5.226,5.226,0,0,1,.453,1.4l1.777,7.919,2.007-7.417c.151-.562.284-1,.4-1.294a1.905,1.905,0,0,1,.574-.768,1.662,1.662,0,0,1,1.082-.32,1.572,1.572,0,0,1,1.076.332,1.815,1.815,0,0,1,.532.738c.1.266.236.7.4,1.312l2.007,7.411,1.777-7.919a9.827,9.827,0,0,1,.248-.967,1.613,1.613,0,0,1,.4-.635,1.13,1.13,0,0,1,.816-.272,1.275,1.275,0,0,1,.913.351,1.209,1.209,0,0,1,.375.895,5.636,5.636,0,0,1-.206,1.209l-2.255,9.128c-.157.6-.284,1.07-.387,1.36a1.813,1.813,0,0,1-.514.75,1.517,1.517,0,0,1-1.034.326,1.548,1.548,0,0,1-1.01-.314,1.7,1.7,0,0,1-.526-.707C558.592,468.794,558.459,468.347,558.278,467.712Z" transform="translate(-216.542 -180.372)"/><path class="ag" d="M599.025,245.48h36v28.834L512.528,428.1l-42.858-.852Z" transform="translate(-185.76 -97.088)"/></g></g></svg>